<svg width="80" height="80" viewBox="0 0 80 80" fill="none" xmlns="http://www.w3.org/2000/svg">
<rect width="80" height="80" fill="#7044CC"/>
<path d="M51.3773 34.4259C51.529 33.9222 51.3773 33.5527 50.6602 33.5527H48.2844C47.6799 33.5527 47.4037 33.8723 47.252 34.2233C47.252 34.2233 46.0441 37.1689 44.3324 39.0788C43.7799 39.6346 43.5275 39.8101 43.2263 39.8101C43.0757 39.8101 42.8569 39.6346 42.8569 39.1308V34.4259C42.8569 33.8214 42.6825 33.5527 42.1787 33.5527H38.4456C38.0686 33.5527 37.8411 33.8322 37.8411 34.0987C37.8411 34.6707 38.6969 34.8029 38.7847 36.4149V39.9119C38.7847 40.6778 38.6471 40.8176 38.3437 40.8176C37.5388 40.8176 35.5802 37.8612 34.4177 34.4768C34.1913 33.8192 33.9627 33.5538 33.3561 33.5538H30.9814C30.3022 33.5538 30.1667 33.8734 30.1667 34.2244C30.1667 34.8549 30.9717 37.9749 33.9162 42.1013C35.8792 44.9191 38.6427 46.4466 41.1604 46.4466C42.6695 46.4466 42.8558 46.1075 42.8558 45.5225V43.3927C42.8558 42.7145 42.9999 42.578 43.4777 42.578C43.8287 42.578 44.4332 42.7557 45.8426 44.1131C47.4524 45.7229 47.7189 46.4455 48.6235 46.4455H50.9982C51.6763 46.4455 52.0154 46.1064 51.8204 45.4369C51.607 44.7707 50.8378 43.8011 49.8173 42.6538C49.2627 41.9995 48.4339 41.2953 48.1815 40.9432C47.8294 40.4893 47.9312 40.2889 48.1815 39.8859C48.1826 39.887 51.0762 35.8115 51.3773 34.4259Z" fill="white"/>
</svg>
