<svg width="66" height="21" viewBox="0 0 66 21" fill="none" xmlns="http://www.w3.org/2000/svg">
<path d="M47.7518 1.23717C46.241 0.679598 44.644 0.399804 43.036 0.410966C37.836 0.410966 34.1635 3.06405 34.1375 6.87251C34.105 9.67042 36.7473 11.2471 38.746 12.182C40.7968 13.1431 41.4825 13.7488 41.476 14.6079C41.463 15.9147 39.838 16.5072 38.3268 16.5072C36.25 16.5072 35.1158 16.2143 33.3705 15.4802L32.7238 15.1741L31.986 19.5586C33.2503 20.0918 35.5285 20.5494 37.8815 20.5889C43.4098 20.5889 47.0238 17.9523 47.066 13.9002C47.1115 11.6652 45.6815 9.97655 42.672 8.58088C40.8423 7.67567 39.708 7.07001 39.708 6.15163C39.708 5.33859 40.6798 4.46959 42.711 4.46959C44.0629 4.43646 45.4064 4.69335 46.6533 5.22338L47.1408 5.44392L47.8785 1.20755L47.7518 1.23717ZM61.2458 0.766465H57.1833C55.919 0.766465 54.9668 1.11867 54.4143 2.38926L46.6013 20.3157H52.1295L53.2345 17.3762L59.9815 17.3828C60.1408 18.0708 60.6283 20.3157 60.6283 20.3157H65.5033L61.2458 0.766465ZM26.6593 0.601881H31.9275L28.632 20.161H23.3703L26.6593 0.595298V0.601881ZM13.2855 11.3821L13.8315 14.0977L18.9795 0.766465H24.5598L16.269 20.2893H10.7018L6.15178 3.75859C6.07809 3.48601 5.90502 3.25191 5.66753 3.10355C4.02758 2.24553 2.28995 1.59441 0.49353 1.16475L0.56503 0.753296H9.04428C10.1948 0.79938 11.121 1.16476 11.4298 2.40901L13.2823 11.392V11.3821H13.2855ZM54.7458 13.3768L56.8453 7.90609C56.8193 7.96534 57.2775 6.77705 57.544 6.04301L57.9048 7.73163L59.1235 13.3735H54.7425V13.3768H54.7458Z" fill="#7044CC"/>
</svg>
