<svg width="46" height="62" viewBox="0 0 46 62" fill="none" xmlns="http://www.w3.org/2000/svg">
<g clip-path="url(#clip0_3_120)">
<path d="M38.9451 30.0462H38.7067V28.1385H38.9451C40.0891 28.1385 41.0425 27.2323 41.0425 26.0877V20.5554C41.0425 19.4108 40.0891 18.5046 38.9451 18.5046H38.7067C38.5637 18.5046 38.4684 18.5523 38.3254 18.6L37.658 16.7877C37.9917 16.6446 38.373 16.5969 38.7067 16.5969H38.9451C41.1378 16.5969 42.9492 18.3615 42.9492 20.5554V26.04C42.9492 28.2338 41.1378 30.0462 38.9451 30.0462Z" fill="#7044CC"/>
<path d="M46 62H44.0933V54.4647C44.0933 51.6508 41.4238 49.4093 38.1347 49.4093H7.86528C4.57617 49.4093 1.90674 51.6985 1.90674 54.4647V62H0V54.4647C0 50.6016 3.52746 47.5016 7.86528 47.5016H38.1347C42.4725 47.5016 46 50.6493 46 54.4647V62Z" fill="#7044CC"/>
<path d="M22.9762 45.3077C13.9668 45.3077 6.6259 38.0585 6.6259 29.14V16.9785H8.53264V29.14C8.53264 37.0092 15.0155 43.4 22.9762 43.4C30.9844 43.4 37.4673 37.0092 37.4673 29.14V16.4539H39.3741V29.14C39.3741 38.0585 32.0332 45.3077 22.9762 45.3077Z" fill="#7044CC"/>
<path d="M8.38964 30.3323H2.62177V9.58615C2.62177 6.05692 5.52954 3.19538 9.10467 3.19538H11.0591C12.5845 1.19231 14.9202 0 17.4943 0H44.3793V6.72462C44.3793 11.1123 40.7565 14.6892 36.2757 14.6892H11.3451C9.72436 14.6892 8.38964 15.9769 8.38964 17.5508V30.3323ZM4.5285 28.4246H6.53057V17.5508C6.53057 14.9277 8.72332 12.7815 11.3927 12.7815H36.371C39.7554 12.7815 42.5679 10.0631 42.5679 6.72462V1.90769H17.4943C15.3969 1.90769 13.4902 2.95692 12.3461 4.67385L12.0601 5.10308H9.057C6.53057 5.10308 4.48083 7.10615 4.48083 9.58615V28.4246H4.5285Z" fill="#7044CC"/>
<path d="M8.53265 30.0938L7.48394 29.9984C5.72021 29.8077 2.62177 28.3292 2.62177 26.0877V20.5553C2.62177 18.2661 5.76788 16.8353 7.48394 16.6446L8.53265 16.5492V30.0938ZM6.62591 18.7907C5.52954 19.1723 4.5285 19.9353 4.5285 20.5553V26.04C4.5285 26.66 5.5772 27.423 6.62591 27.8046V18.7907Z" fill="#7044CC"/>
<path d="M28.029 49.2661H26.1223V56.2769H28.029V49.2661Z" fill="#7044CC"/>
<path d="M22.8332 49.2661H20.9264V56.2769H22.8332V49.2661Z" fill="#7044CC"/>
</g>
<defs>
<clipPath id="clip0_3_120">
<rect width="46" height="62" fill="white"/>
</clipPath>
</defs>
</svg>
