<svg width="50" height="33" viewBox="0 0 50 33" fill="none" xmlns="http://www.w3.org/2000/svg">
<path d="M23.6805 29.2617C23.7965 29.3659 23.9222 29.4701 24.0454 29.5718C21.5959 31.2819 18.7205 32.1927 15.7804 32.1897C13.8207 32.1914 11.8798 31.7867 10.0689 30.9989C8.25795 30.2111 6.61245 29.0555 5.22647 27.5983C3.8405 26.1411 2.74125 24.4109 1.99158 22.5065C1.24191 20.6022 0.856531 18.5611 0.857485 16.5C0.85723 13.6613 1.58903 10.8756 2.97496 8.43966C4.36088 6.00373 6.34904 4.00873 8.7277 2.66712C11.1064 1.32551 13.7865 0.687523 16.4826 0.821099C19.1787 0.954675 21.7899 1.85481 24.0382 3.42565C23.9173 3.53495 23.7965 3.63407 23.7047 3.7459C21.9627 5.32788 20.565 7.28582 19.6067 9.48661C18.6484 11.6874 18.152 14.0794 18.1512 16.5C18.1512 21.3927 20.1642 26.0439 23.6805 29.2617ZM34.2196 0.807738C31.2821 0.80173 28.409 1.71284 25.9642 3.42565C26.0827 3.53495 26.2035 3.63407 26.2953 3.7459C29.8285 6.95603 31.8512 11.6098 31.8512 16.5C31.8512 21.3902 29.8333 26.0389 26.3219 29.2617C26.2035 29.3659 26.0778 29.4701 25.957 29.5718C28.4045 31.2825 31.2785 32.1934 34.2172 32.1897C36.1924 32.2163 38.1529 31.8301 39.9851 31.0536C41.8173 30.2771 43.4847 29.1257 44.8904 27.6661C46.2962 26.2066 47.4124 24.468 48.1743 22.5512C48.9362 20.6344 49.3286 18.5775 49.3287 16.5C49.3289 14.4225 48.9368 12.3656 48.1752 10.4486C47.4136 8.53172 46.2977 6.79293 44.8921 5.33315C43.4866 3.87336 41.8194 2.72164 39.9874 1.9448C38.1553 1.16796 36.1948 0.781468 34.2196 0.807738ZM25 4.1729C23.2233 5.63808 21.7872 7.50959 20.8007 9.64546C19.8141 11.7813 19.3031 14.1254 19.3063 16.5C19.3016 18.8759 19.812 21.2216 20.7986 23.359C21.7852 25.4963 23.222 27.369 25 28.8347C26.7774 27.3683 28.2141 25.4956 29.201 23.3584C30.1879 21.2213 30.6992 18.8759 30.6961 16.5C30.6994 14.1252 30.1881 11.7808 29.2011 9.64485C28.2142 7.50891 26.7774 5.63756 25 4.1729Z" fill="#7044CC"/>
</svg>
