<svg width="45" height="62" viewBox="0 0 45 62" fill="none" xmlns="http://www.w3.org/2000/svg">
<g clip-path="url(#clip0_3_77)">
<path d="M27.7397 1.33533H10.2424V3.24302H27.7397V1.33533Z" fill="#7044CC"/>
<path d="M27.7397 6.67688H10.2424V8.58457H27.7397V6.67688Z" fill="#7044CC"/>
<path d="M7.39723 8.44148H0.284485V1.33533H7.39723V8.44148ZM2.18122 6.53379H5.5005V3.24302H2.18122V6.53379Z" fill="#7044CC"/>
<path d="M44.5258 45.117H33.0032V43.2093H42.6291V30.6185H1.89673V43.2093H11.8546V45.117H0V28.7108H44.5258V45.117Z" fill="#7044CC"/>
<path d="M33.0506 35.96H11.4278V37.8677H33.0506V35.96Z" fill="#7044CC"/>
<path d="M45 10.54H30.5848V0H45V10.54ZM32.4816 8.63231H43.1033V1.90769H32.4816V8.63231Z" fill="#7044CC"/>
<path d="M40.9694 4.29236H34.6154V6.20005H40.9694V4.29236Z" fill="#7044CC"/>
<path d="M27.7397 15.2139H10.2424V17.1216H27.7397V15.2139Z" fill="#7044CC"/>
<path d="M27.7397 20.5554H10.2424V22.4631H27.7397V20.5554Z" fill="#7044CC"/>
<path d="M7.39723 22.32H0.284485V15.2139H7.39723V22.32ZM2.18122 20.4123H5.5005V17.1216H2.18122V20.4123Z" fill="#7044CC"/>
<path d="M45 24.4184H30.5848V13.8784H45V24.4184ZM32.4816 22.5107H43.1033V15.7861H32.4816V22.5107Z" fill="#7044CC"/>
<path d="M40.9694 18.1708H34.6154V20.0785H40.9694V18.1708Z" fill="#7044CC"/>
<path d="M22.9979 39.7277H21.1011V43.3523H22.9979V39.7277Z" fill="#7044CC"/>
<path d="M15.8953 42.909L14.9572 44.567L18.1304 46.3833L19.0685 44.7254L15.8953 42.909Z" fill="#7044CC"/>
<path d="M18.3466 48.8087L15.173 50.6243L16.1107 52.2824L19.2844 50.4668L18.3466 48.8087Z" fill="#7044CC"/>
<path d="M26.4014 48.4718L25.4635 50.13L28.6371 51.946L29.5751 50.2878L26.4014 48.4718Z" fill="#7044CC"/>
<path d="M28.4145 42.577L25.2412 44.3933L26.1793 46.0513L29.3526 44.235L28.4145 42.577Z" fill="#7044CC"/>
<path d="M27.6923 58.6615L16.7861 58.5661L22.334 49.2661L27.6923 58.6615ZM20.1528 56.6584L24.4204 56.7061L22.334 53.0338L20.1528 56.6584Z" fill="#7044CC"/>
<path d="M21.3416 57.5361L21.3007 61.9714L23.1974 61.9891L23.2383 57.5537L21.3416 57.5361Z" fill="#7044CC"/>
</g>
<defs>
<clipPath id="clip0_3_77">
<rect width="45" height="62" fill="white"/>
</clipPath>
</defs>
</svg>
