<svg width="62" height="58" viewBox="0 0 62 58" fill="none" xmlns="http://www.w3.org/2000/svg">
<g clip-path="url(#clip0_3_53)">
<path d="M57.8985 58H4.10154C1.86 58 0 56.1595 0 53.8942V21.7559C0 19.4907 1.86 17.6501 4.10154 17.6501H20.8892V19.5379H4.10154C2.90923 19.5379 1.90769 20.5289 1.90769 21.7559V53.9414C1.90769 55.1685 2.90923 56.1595 4.10154 56.1595H57.8985C59.0908 56.1595 60.0923 55.1685 60.0923 53.9414V21.7559C60.0923 20.5289 59.0908 19.5379 57.8985 19.5379V17.6501C60.14 17.6501 62 19.4907 62 21.7559V53.9414C62 56.1595 60.14 58 57.8985 58Z" fill="#7044CC"/>
<path d="M15.7861 39.0757H5.10307V40.9634H15.7861V39.0757Z" fill="#7044CC"/>
<path d="M27.8523 46.2961H5.10307V48.1839H27.8523V46.2961Z" fill="#7044CC"/>
<path d="M29.14 39.0757H18.4569V40.9634H29.14V39.0757Z" fill="#7044CC"/>
<path d="M42.4938 39.0757H31.8108V40.9634H42.4938V39.0757Z" fill="#7044CC"/>
<path d="M55.8477 39.0757H45.1646V40.9634H55.8477V39.0757Z" fill="#7044CC"/>
<path d="M16.6446 34.6396H4.57846V25.673H16.6923V34.6396H16.6446ZM6.48615 32.7519H14.7846V27.5607H6.48615V32.7519Z" fill="#7044CC"/>
<path d="M39.68 35.253L39.3938 35.1587C32.0969 33.035 23.7031 29.1652 23.7031 18.0277V4.48332L24.8 4.6249C26.7077 4.90805 28.8061 4.86086 30.8569 4.48332C34.1477 3.86981 37.1046 2.45403 38.9646 0.6607L39.68 0L40.3477 0.6607C42.2077 2.50122 45.1646 3.86981 48.4554 4.48332C50.5538 4.86086 52.6523 4.90805 54.5123 4.6249L55.6092 4.43613V17.9805C55.6092 29.118 47.2154 32.9878 39.9184 35.1587L39.68 35.253ZM25.6108 6.65419V18.0277C25.6108 25.7673 29.8077 30.345 39.68 33.3181C49.5523 30.345 53.7492 25.7673 53.7492 18.0277V6.65419C51.9369 6.84296 50.0292 6.70138 48.1215 6.37103C44.8308 5.75753 41.7784 4.38893 39.68 2.59561C37.5815 4.38893 34.5292 5.71033 31.2384 6.32384C29.3308 6.70138 27.4231 6.79577 25.6108 6.65419Z" fill="#7044CC"/>
<path d="M39.68 30.5337L39.3938 30.4393C31.4292 27.8437 28.1862 24.2571 28.1862 18.0276V9.34412L29.0446 9.29693C29.9031 9.24974 30.8092 9.10816 31.6677 8.96658C34.3862 8.44746 37.0092 7.5036 39.1554 6.18221L39.6323 5.89905L40.1092 6.18221C42.2554 7.5036 44.8308 8.44746 47.5969 8.96658C48.4554 9.10816 49.3615 9.24974 50.22 9.29693L51.0785 9.34412V17.9804C51.0785 24.2571 47.8354 27.8437 39.9185 30.3921L39.68 30.5337ZM30.0938 11.0903V17.9804C30.0938 23.3132 32.6692 26.192 39.68 28.5044C46.6431 26.192 49.2662 23.3132 49.2662 17.9804V11.0903C48.5985 10.9959 47.9785 10.9015 47.3108 10.8071C44.5446 10.288 41.9215 9.34413 39.68 8.06992C37.4385 9.34413 34.8154 10.288 32.0492 10.8071C31.4292 10.9487 30.7615 11.0431 30.0938 11.0903Z" fill="#7044CC"/>
<path d="M39.2508 20.5761L36.1508 18.5468L37.2 16.9422L38.8215 18.0277L41.9215 14.1578L43.4477 15.2905L39.2508 20.5761Z" fill="#7044CC"/>
</g>
<defs>
<clipPath id="clip0_3_53">
<rect width="62" height="58" fill="white"/>
</clipPath>
</defs>
</svg>
