<svg width="107" height="73" viewBox="0 0 107 73" fill="none" xmlns="http://www.w3.org/2000/svg">
<path d="M36.2 2.8L35.7608 3.69841L35.7685 3.70213L36.2 2.8ZM43.6 8.5L42.8191 9.12469V9.1247L43.6 8.5ZM48.2 16.8L47.2637 17.1511L47.2669 17.1596L47.2702 17.168L48.2 16.8ZM50.8 26.4L49.8105 26.5443L50.8 26.4ZM44.7 62.7L43.8868 62.118L44.7 62.7ZM6.9 62.8L6.08679 63.3821L6.09387 63.3917L6.9 62.8ZM1.4 23.9L2.37658 24.1152L2.37732 24.1118L1.4 23.9ZM5.5 12.5L6.38778 12.9603L6.39116 12.9537L5.5 12.5ZM13.5 3.79999L12.9831 2.9439L12.9759 2.94834L13.5 3.79999ZM20.9 13.5L20.4039 12.6318H20.4039L20.9 13.5ZM17.5 17.1L16.6207 16.6237L16.617 16.6305L16.6134 16.6374L17.5 17.1ZM15.5 21.6L14.5602 21.2583L14.5556 21.271L14.5513 21.2838L15.5 21.6ZM14.5 27.2L15.4961 27.2879L15.4963 27.2854L14.5 27.2ZM14.1 32.4L13.1015 32.3445L13.1 32.3722V32.4H14.1ZM34.7 18.2L33.7966 18.6288L33.7994 18.6348L34.7 18.2ZM25.9 1.59999C29.6385 1.59999 32.9176 2.30838 35.7608 3.69838L36.6392 1.90161C33.4824 0.35828 29.8949 -0.400006 25.9 -0.400006V1.59999ZM35.7685 3.70213C38.7181 5.11279 41.0587 6.9242 42.8191 9.12469L44.3809 7.87531C42.4079 5.40913 39.8152 3.42054 36.6315 1.89786L35.7685 3.70213ZM42.8191 9.1247C44.6112 11.3647 46.0955 14.036 47.2637 17.1511L49.1363 16.4489C47.9045 13.164 46.3222 10.3019 44.3809 7.8753L42.8191 9.1247ZM47.2702 17.168C48.5102 20.3006 49.3557 23.4257 49.8105 26.5443L51.7895 26.2557C51.311 22.9743 50.4232 19.6994 49.1298 16.4319L47.2702 17.168ZM49.8105 26.5443C50.2696 29.6924 50.5 33.0106 50.5 36.5H52.5C52.5 32.9228 52.2638 29.5076 51.7895 26.2557L49.8105 26.5443ZM50.5 36.5C50.5 47.5109 48.2566 56.0132 43.8868 62.118L45.5132 63.282C50.2101 56.7201 52.5 47.7558 52.5 36.5H50.5ZM43.8868 62.118C39.5454 68.1832 33.6179 71.2 26 71.2V73.2C34.2488 73.2 40.7879 69.8834 45.5132 63.282L43.8868 62.118ZM26 71.2C18.1677 71.2 12.1077 68.2046 7.70613 62.2083L6.09387 63.3917C10.8923 69.9287 17.5656 73.2 26 73.2V71.2ZM7.71315 62.2179C3.34405 56.1141 1.1 47.5791 1.1 36.5H-0.9C-0.9 47.8209 1.38929 56.8193 6.08685 63.382L7.71315 62.2179ZM1.1 36.5C1.1 32.098 1.52706 27.9707 2.37657 24.1152L0.423425 23.6848C-0.460394 27.696 -0.9 31.9687 -0.9 36.5H1.1ZM2.37732 24.1118C3.22543 20.1974 4.56219 16.4811 6.38775 12.9603L4.61225 12.0397C2.70448 15.7189 1.3079 19.6026 0.422677 23.6882L2.37732 24.1118ZM6.39116 12.9537C8.17535 9.44903 10.7158 6.68751 14.0241 4.65165L12.9759 2.94834C9.35084 5.17915 6.55799 8.21763 4.60884 12.0463L6.39116 12.9537ZM14.0169 4.65606C17.3725 2.63005 21.3216 1.59999 25.9 1.59999V-0.400006C21.0117 -0.400006 16.6942 0.703277 12.9831 2.94393L14.0169 4.65606ZM25.8 11.3C23.7871 11.3 21.9774 11.7326 20.4039 12.6318L21.3961 14.3682C22.6227 13.6674 24.0796 13.3 25.8 13.3V11.3ZM20.4039 12.6318C18.8221 13.5356 17.5644 14.8815 16.6207 16.6237L18.3793 17.5763C19.1689 16.1185 20.178 15.0643 21.3961 14.3682L20.4039 12.6318ZM16.6134 16.6374C15.7952 18.2057 15.1101 19.746 14.5602 21.2583L16.4398 21.9417C16.9566 20.5206 17.6048 19.061 18.3866 17.5626L16.6134 16.6374ZM14.5513 21.2838C14.0496 22.789 13.707 24.7428 13.5037 27.1146L15.4963 27.2854C15.6931 24.9905 16.0171 23.211 16.4487 21.9162L14.5513 21.2838ZM13.5039 27.1121C13.3036 29.3819 13.1691 31.1281 13.1015 32.3445L15.0985 32.4555C15.1642 31.2719 15.2964 29.5515 15.4961 27.2879L13.5039 27.1121ZM13.1 32.4C13.1 32.4023 13.1 32.4047 13.1 32.407C13.1 32.4094 13.1 32.4117 13.1 32.4141C13.1 32.4164 13.1 32.4188 13.1 32.4211C13.1 32.4235 13.1 32.4258 13.1 32.4282C13.1 32.4306 13.1 32.4329 13.1 32.4353C13.1 32.4376 13.1 32.44 13.1 32.4424C13.1 32.4447 13.1 32.4471 13.1 32.4494C13.1 32.4518 13.1 32.4542 13.1 32.4565C13.1 32.4589 13.1 32.4613 13.1 32.4636C13.1 32.466 13.1 32.4684 13.1 32.4708C13.1 32.4731 13.1 32.4755 13.1 32.4779C13.1 32.4803 13.1 32.4827 13.1 32.485C13.1 32.4874 13.1 32.4898 13.1 32.4922C13.1 32.4946 13.1 32.4969 13.1 32.4993C13.1 32.5017 13.1 32.5041 13.1 32.5065C13.1 32.5089 13.1 32.5113 13.1 32.5137C13.1 32.5161 13.1 32.5185 13.1 32.5209C13.1 32.5233 13.1 32.5256 13.1 32.528C13.1 32.5304 13.1 32.5328 13.1 32.5352C13.1 32.5376 13.1 32.5401 13.1 32.5425C13.1 32.5449 13.1 32.5473 13.1 32.5497C13.1 32.5521 13.1 32.5545 13.1 32.5569C13.1 32.5593 13.1 32.5617 13.1 32.5641C13.1 32.5666 13.1 32.569 13.1 32.5714C13.1 32.5738 13.1 32.5762 13.1 32.5786C13.1 32.5811 13.1 32.5835 13.1 32.5859C13.1 32.5883 13.1 32.5908 13.1 32.5932C13.1 32.5956 13.1 32.598 13.1 32.6005C13.1 32.6029 13.1 32.6053 13.1 32.6078C13.1 32.6102 13.1 32.6126 13.1 32.6151C13.1 32.6175 13.1 32.6199 13.1 32.6224C13.1 32.6248 13.1 32.6272 13.1 32.6297C13.1 32.6321 13.1 32.6346 13.1 32.637C13.1 32.6395 13.1 32.6419 13.1 32.6444C13.1 32.6468 13.1 32.6493 13.1 32.6517C13.1 32.6542 13.1 32.6566 13.1 32.6591C13.1 32.6615 13.1 32.664 13.1 32.6664C13.1 32.6689 13.1 32.6713 13.1 32.6738C13.1 32.6763 13.1 32.6787 13.1 32.6812C13.1 32.6836 13.1 32.6861 13.1 32.6886C13.1 32.691 13.1 32.6935 13.1 32.696C13.1 32.6984 13.1 32.7009 13.1 32.7034C13.1 32.7059 13.1 32.7083 13.1 32.7108C13.1 32.7133 13.1 32.7158 13.1 32.7182C13.1 32.7207 13.1 32.7232 13.1 32.7257C13.1 32.7282 13.1 32.7306 13.1 32.7331C13.1 32.7356 13.1 32.7381 13.1 32.7406C13.1 32.7431 13.1 32.7456 13.1 32.748C13.1 32.7505 13.1 32.753 13.1 32.7555C13.1 32.758 13.1 32.7605 13.1 32.763C13.1 32.7655 13.1 32.768 13.1 32.7705C13.1 32.773 13.1 32.7755 13.1 32.778C13.1 32.7805 13.1 32.783 13.1 32.7855C13.1 32.788 13.1 32.7905 13.1 32.793C13.1 32.7955 13.1 32.7981 13.1 32.8006C13.1 32.8031 13.1 32.8056 13.1 32.8081C13.1 32.8106 13.1 32.8131 13.1 32.8157C13.1 32.8182 13.1 32.8207 13.1 32.8232C13.1 32.8257 13.1 32.8283 13.1 32.8308C13.1 32.8333 13.1 32.8358 13.1 32.8384C13.1 32.8409 13.1 32.8434 13.1 32.8459C13.1 32.8485 13.1 32.851 13.1 32.8535C13.1 32.8561 13.1 32.8586 13.1 32.8611C13.1 32.8637 13.1 32.8662 13.1 32.8687C13.1 32.8713 13.1 32.8738 13.1 32.8764C13.1 32.8789 13.1 32.8815 13.1 32.884C13.1 32.8865 13.1 32.8891 13.1 32.8916C13.1 32.8942 13.1 32.8967 13.1 32.8993C13.1 32.9018 13.1 32.9044 13.1 32.9069C13.1 32.9095 13.1 32.9121 13.1 32.9146C13.1 32.9172 13.1 32.9197 13.1 32.9223C13.1 32.9249 13.1 32.9274 13.1 32.93C13.1 32.9325 13.1 32.9351 13.1 32.9377C13.1 32.9402 13.1 32.9428 13.1 32.9454C13.1 32.9479 13.1 32.9505 13.1 32.9531C13.1 32.9557 13.1 32.9582 13.1 32.9608C13.1 32.9634 13.1 32.966 13.1 32.9685C13.1 32.9711 13.1 32.9737 13.1 32.9763C13.1 32.9789 13.1 32.9815 13.1 32.984C13.1 32.9866 13.1 32.9892 13.1 32.9918C13.1 32.9944 13.1 32.997 13.1 32.9996C13.1 33.0022 13.1 33.0047 13.1 33.0073C13.1 33.0099 13.1 33.0125 13.1 33.0151C13.1 33.0177 13.1 33.0203 13.1 33.0229C13.1 33.0255 13.1 33.0281 13.1 33.0307C13.1 33.0333 13.1 33.0359 13.1 33.0385C13.1 33.0411 13.1 33.0438 13.1 33.0464C13.1 33.049 13.1 33.0516 13.1 33.0542C13.1 33.0568 13.1 33.0594 13.1 33.062C13.1 33.0647 13.1 33.0673 13.1 33.0699C13.1 33.0725 13.1 33.0751 13.1 33.0778C13.1 33.0804 13.1 33.083 13.1 33.0856C13.1 33.0882 13.1 33.0909 13.1 33.0935C13.1 33.0961 13.1 33.0988 13.1 33.1014C13.1 33.104 13.1 33.1066 13.1 33.1093C13.1 33.1119 13.1 33.1145 13.1 33.1172C13.1 33.1198 13.1 33.1225 13.1 33.1251C13.1 33.1277 13.1 33.1304 13.1 33.133C13.1 33.1357 13.1 33.1383 13.1 33.141C13.1 33.1436 13.1 33.1463 13.1 33.1489C13.1 33.1516 13.1 33.1542 13.1 33.1569C13.1 33.1595 13.1 33.1622 13.1 33.1648C13.1 33.1675 13.1 33.1701 13.1 33.1728C13.1 33.1754 13.1 33.1781 13.1 33.1808C13.1 33.1834 13.1 33.1861 13.1 33.1887C13.1 33.1914 13.1 33.1941 13.1 33.1967C13.1 33.1994 13.1 33.2021 13.1 33.2048C13.1 33.2074 13.1 33.2101 13.1 33.2128C13.1 33.2154 13.1 33.2181 13.1 33.2208C13.1 33.2235 13.1 33.2261 13.1 33.2288C13.1 33.2315 13.1 33.2342 13.1 33.2369C13.1 33.2396 13.1 33.2422 13.1 33.2449C13.1 33.2476 13.1 33.2503 13.1 33.253C13.1 33.2557 13.1 33.2584 13.1 33.2611C13.1 33.2637 13.1 33.2664 13.1 33.2691C13.1 33.2718 13.1 33.2745 13.1 33.2772C13.1 33.2799 13.1 33.2826 13.1 33.2853C13.1 33.288 13.1 33.2907 13.1 33.2934C13.1 33.2961 13.1 33.2988 13.1 33.3015C13.1 33.3042 13.1 33.307 13.1 33.3097C13.1 33.3124 13.1 33.3151 13.1 33.3178C13.1 33.3205 13.1 33.3232 13.1 33.3259C13.1 33.3287 13.1 33.3314 13.1 33.3341C13.1 33.3368 13.1 33.3395 13.1 33.3423C13.1 33.345 13.1 33.3477 13.1 33.3504C13.1 33.3532 13.1 33.3559 13.1 33.3586C13.1 33.3613 13.1 33.3641 13.1 33.3668C13.1 33.3695 13.1 33.3723 13.1 33.375C13.1 33.3777 13.1 33.3805 13.1 33.3832C13.1 33.3859 13.1 33.3887 13.1 33.3914C13.1 33.3942 13.1 33.3969 13.1 33.3997C13.1 33.4024 13.1 33.4051 13.1 33.4079C13.1 33.4106 13.1 33.4134 13.1 33.4161C13.1 33.4189 13.1 33.4216 13.1 33.4244C13.1 33.4271 13.1 33.4299 13.1 33.4326C13.1 33.4354 13.1 33.4382 13.1 33.4409C13.1 33.4437 13.1 33.4464 13.1 33.4492C13.1 33.452 13.1 33.4547 13.1 33.4575C13.1 33.4603 13.1 33.463 13.1 33.4658C13.1 33.4686 13.1 33.4713 13.1 33.4741C13.1 33.4769 13.1 33.4796 13.1 33.4824C13.1 33.4852 13.1 33.488 13.1 33.4907C13.1 33.4935 13.1 33.4963 13.1 33.4991C13.1 33.5019 13.1 33.5046 13.1 33.5074C13.1 33.5102 13.1 33.513 13.1 33.5158C13.1 33.5186 13.1 33.5213 13.1 33.5241C13.1 33.5269 13.1 33.5297 13.1 33.5325C13.1 33.5353 13.1 33.5381 13.1 33.5409C13.1 33.5437 13.1 33.5465 13.1 33.5493C13.1 33.5521 13.1 33.5549 13.1 33.5577C13.1 33.5605 13.1 33.5633 13.1 33.5661C13.1 33.5689 13.1 33.5717 13.1 33.5745C13.1 33.5773 13.1 33.5801 13.1 33.5829C13.1 33.5857 13.1 33.5886 13.1 33.5914C13.1 33.5942 13.1 33.597 13.1 33.5998C13.1 33.6026 13.1 33.6055 13.1 33.6083C13.1 33.6111 13.1 33.6139 13.1 33.6167C13.1 33.6196 13.1 33.6224 13.1 33.6252C13.1 33.628 13.1 33.6309 13.1 33.6337C13.1 33.6365 13.1 33.6394 13.1 33.6422C13.1 33.645 13.1 33.6479 13.1 33.6507C13.1 33.6535 13.1 33.6564 13.1 33.6592C13.1 33.662 13.1 33.6649 13.1 33.6677C13.1 33.6706 13.1 33.6734 13.1 33.6762C13.1 33.6791 13.1 33.6819 13.1 33.6848C13.1 33.6876 13.1 33.6905 13.1 33.6933C13.1 33.6962 13.1 33.699 13.1 33.7019C13.1 33.7047 13.1 33.7076 13.1 33.7104C13.1 33.7133 13.1 33.7162 13.1 33.719C13.1 33.7219 13.1 33.7247 13.1 33.7276C13.1 33.7305 13.1 33.7333 13.1 33.7362C13.1 33.7391 13.1 33.7419 13.1 33.7448C13.1 33.7477 13.1 33.7505 13.1 33.7534C13.1 33.7563 13.1 33.7592 13.1 33.762C13.1 33.7649 13.1 33.7678 13.1 33.7707C13.1 33.7735 13.1 33.7764 13.1 33.7793C13.1 33.7822 13.1 33.7851 13.1 33.7879C13.1 33.7908 13.1 33.7937 13.1 33.7966C13.1 33.7995 13.1 33.8024 13.1 33.8053C13.1 33.8082 13.1 33.811 13.1 33.8139C13.1 33.8168 13.1 33.8197 13.1 33.8226C13.1 33.8255 13.1 33.8284 13.1 33.8313C13.1 33.8342 13.1 33.8371 13.1 33.84C13.1 33.8429 13.1 33.8458 13.1 33.8487C13.1 33.8516 13.1 33.8545 13.1 33.8574C13.1 33.8604 13.1 33.8633 13.1 33.8662C13.1 33.8691 13.1 33.872 13.1 33.8749C13.1 33.8778 13.1 33.8807 13.1 33.8837C13.1 33.8866 13.1 33.8895 13.1 33.8924C13.1 33.8953 13.1 33.8983 13.1 33.9012C13.1 33.9041 13.1 33.907 13.1 33.91C13.1 33.9129 13.1 33.9158 13.1 33.9187C13.1 33.9217 13.1 33.9246 13.1 33.9275C13.1 33.9305 13.1 33.9334 13.1 33.9363C13.1 33.9393 13.1 33.9422 13.1 33.9452C13.1 33.9481 13.1 33.951 13.1 33.954C13.1 33.9569 13.1 33.9599 13.1 33.9628C13.1 33.9658 13.1 33.9687 13.1 33.9716C13.1 33.9746 13.1 33.9775 13.1 33.9805C13.1 33.9834 13.1 33.9864 13.1 33.9894C13.1 33.9923 13.1 33.9953 13.1 33.9982C13.1 34.0012 13.1 34.0041 13.1 34.0071C13.1 34.0101 13.1 34.013 13.1 34.016C13.1 34.0189 13.1 34.0219 13.1 34.0249C13.1 34.0278 13.1 34.0308 13.1 34.0338C13.1 34.0367 13.1 34.0397 13.1 34.0427C13.1 34.0457 13.1 34.0486 13.1 34.0516C13.1 34.0546 13.1 34.0576 13.1 34.0605C13.1 34.0635 13.1 34.0665 13.1 34.0695C13.1 34.0725 13.1 34.0755 13.1 34.0784C13.1 34.0814 13.1 34.0844 13.1 34.0874C13.1 34.0904 13.1 34.0934 13.1 34.0964C13.1 34.0993 13.1 34.1023 13.1 34.1053C13.1 34.1083 13.1 34.1113 13.1 34.1143C13.1 34.1173 13.1 34.1203 13.1 34.1233C13.1 34.1263 13.1 34.1293 13.1 34.1323C13.1 34.1353 13.1 34.1383 13.1 34.1413C13.1 34.1443 13.1 34.1474 13.1 34.1504C13.1 34.1534 13.1 34.1564 13.1 34.1594C13.1 34.1624 13.1 34.1654 13.1 34.1684C13.1 34.1714 13.1 34.1745 13.1 34.1775C13.1 34.1805 13.1 34.1835 13.1 34.1865C13.1 34.1896 13.1 34.1926 13.1 34.1956C13.1 34.1986 13.1 34.2017 13.1 34.2047C13.1 34.2077 13.1 34.2107 13.1 34.2138C13.1 34.2168 13.1 34.2198 13.1 34.2229C13.1 34.2259 13.1 34.2289 13.1 34.232C13.1 34.235 13.1 34.238 13.1 34.2411C13.1 34.2441 13.1 34.2472 13.1 34.2502C13.1 34.2533 13.1 34.2563 13.1 34.2593C13.1 34.2624 13.1 34.2654 13.1 34.2685C13.1 34.2715 13.1 34.2746 13.1 34.2776C13.1 34.2807 13.1 34.2837 13.1 34.2868C13.1 34.2898 13.1 34.2929 13.1 34.296C13.1 34.299 13.1 34.3021 13.1 34.3051C13.1 34.3082 13.1 34.3113 13.1 34.3143C13.1 34.3174 13.1 34.3205 13.1 34.3235C13.1 34.3266 13.1 34.3297 13.1 34.3327C13.1 34.3358 13.1 34.3389 13.1 34.3419C13.1 34.345 13.1 34.3481 13.1 34.3512C13.1 34.3542 13.1 34.3573 13.1 34.3604C13.1 34.3635 13.1 34.3666 13.1 34.3696C13.1 34.3727 13.1 34.3758 13.1 34.3789C13.1 34.382 13.1 34.3851 13.1 34.3882C13.1 34.3912 13.1 34.3943 13.1 34.3974C13.1 34.4005 13.1 34.4036 13.1 34.4067C13.1 34.4098 13.1 34.4129 13.1 34.416C13.1 34.4191 13.1 34.4222 13.1 34.4253C13.1 34.4284 13.1 34.4315 13.1 34.4346C13.1 34.4377 13.1 34.4408 13.1 34.4439C13.1 34.447 13.1 34.4501 13.1 34.4532C13.1 34.4563 13.1 34.4595 13.1 34.4626C13.1 34.4657 13.1 34.4688 13.1 34.4719C13.1 34.475 13.1 34.4781 13.1 34.4813C13.1 34.4844 13.1 34.4875 13.1 34.4906C13.1 34.4937 13.1 34.4969 13.1 34.5C13.1 34.5031 13.1 34.5062 13.1 34.5094C13.1 34.5125 13.1 34.5156 13.1 34.5188C13.1 34.5219 13.1 34.525 13.1 34.5282C13.1 34.5313 13.1 34.5344 13.1 34.5376C13.1 34.5407 13.1 34.5438 13.1 34.547C13.1 34.5501 13.1 34.5533 13.1 34.5564C13.1 34.5596 13.1 34.5627 13.1 34.5658C13.1 34.569 13.1 34.5721 13.1 34.5753C13.1 34.5784 13.1 34.5816 13.1 34.5847C13.1 34.5879 13.1 34.591 13.1 34.5942C13.1 34.5974 13.1 34.6005 13.1 34.6037C13.1 34.6068 13.1 34.61 13.1 34.6132C13.1 34.6163 13.1 34.6195 13.1 34.6226C13.1 34.6258 13.1 34.629 13.1 34.6321C13.1 34.6353 13.1 34.6385 13.1 34.6417C13.1 34.6448 13.1 34.648 13.1 34.6512C13.1 34.6543 13.1 34.6575 13.1 34.6607C13.1 34.6639 13.1 34.667 13.1 34.6702C13.1 34.6734 13.1 34.6766 13.1 34.6798C13.1 34.683 13.1 34.6861 13.1 34.6893C13.1 34.6925 13.1 34.6957 13.1 34.6989C13.1 34.7021 13.1 34.7053 13.1 34.7085C13.1 34.7117 13.1 34.7148 13.1 34.718C13.1 34.7212 13.1 34.7244 13.1 34.7276C13.1 34.7308 13.1 34.734 13.1 34.7372C13.1 34.7404 13.1 34.7436 13.1 34.7468C13.1 34.75 13.1 34.7533 13.1 34.7565C13.1 34.7597 13.1 34.7629 13.1 34.7661C13.1 34.7693 13.1 34.7725 13.1 34.7757C13.1 34.7789 13.1 34.7822 13.1 34.7854C13.1 34.7886 13.1 34.7918 13.1 34.795C13.1 34.7982 13.1 34.8015 13.1 34.8047C13.1 34.8079 13.1 34.8111 13.1 34.8144C13.1 34.8176 13.1 34.8208 13.1 34.824C13.1 34.8273 13.1 34.8305 13.1 34.8337C13.1 34.837 13.1 34.8402 13.1 34.8434C13.1 34.8467 13.1 34.8499 13.1 34.8531C13.1 34.8564 13.1 34.8596 13.1 34.8629C13.1 34.8661 13.1 34.8693 13.1 34.8726C13.1 34.8758 13.1 34.8791 13.1 34.8823C13.1 34.8856 13.1 34.8888 13.1 34.8921C13.1 34.8953 13.1 34.8986 13.1 34.9018C13.1 34.9051 13.1 34.9083 13.1 34.9116C13.1 34.9148 13.1 34.9181 13.1 34.9214C13.1 34.9246 13.1 34.9279 13.1 34.9311C13.1 34.9344 13.1 34.9377 13.1 34.9409C13.1 34.9442 13.1 34.9475 13.1 34.9507C13.1 34.954 13.1 34.9573 13.1 34.9605C13.1 34.9638 13.1 34.9671 13.1 34.9704C13.1 34.9736 13.1 34.9769 13.1 34.9802C13.1 34.9835 13.1 34.9867 13.1 34.99C13.1 34.9933 13.1 34.9966 13.1 34.9999C13.1 35.0032 13.1 35.0064 13.1 35.0097C13.1 35.013 13.1 35.0163 13.1 35.0196C13.1 35.0229 13.1 35.0262 13.1 35.0295C13.1 35.0328 13.1 35.0361 13.1 35.0394C13.1 35.0426 13.1 35.0459 13.1 35.0492C13.1 35.0525 13.1 35.0558 13.1 35.0591C13.1 35.0625 13.1 35.0658 13.1 35.0691C13.1 35.0724 13.1 35.0757 13.1 35.079C13.1 35.0823 13.1 35.0856 13.1 35.0889C13.1 35.0922 13.1 35.0955 13.1 35.0988C13.1 35.1022 13.1 35.1055 13.1 35.1088C13.1 35.1121 13.1 35.1154 13.1 35.1187C13.1 35.1221 13.1 35.1254 13.1 35.1287C13.1 35.132 13.1 35.1354 13.1 35.1387C13.1 35.142 13.1 35.1453 13.1 35.1487C13.1 35.152 13.1 35.1553 13.1 35.1587C13.1 35.162 13.1 35.1653 13.1 35.1687C13.1 35.172 13.1 35.1753 13.1 35.1787C13.1 35.182 13.1 35.1854 13.1 35.1887C13.1 35.192 13.1 35.1954 13.1 35.1987C13.1 35.2021 13.1 35.2054 13.1 35.2088C13.1 35.2121 13.1 35.2155 13.1 35.2188C13.1 35.2222 13.1 35.2255 13.1 35.2289C13.1 35.2322 13.1 35.2356 13.1 35.2389C13.1 35.2423 13.1 35.2457 13.1 35.249C13.1 35.2524 13.1 35.2557 13.1 35.2591C13.1 35.2625 13.1 35.2658 13.1 35.2692C13.1 35.2726 13.1 35.2759 13.1 35.2793C13.1 35.2827 13.1 35.286 13.1 35.2894C13.1 35.2928 13.1 35.2962 13.1 35.2995C13.1 35.3029 13.1 35.3063 13.1 35.3097C13.1 35.313 13.1 35.3164 13.1 35.3198C13.1 35.3232 13.1 35.3266 13.1 35.3299C13.1 35.3333 13.1 35.3367 13.1 35.3401C13.1 35.3435 13.1 35.3469 13.1 35.3503C13.1 35.3537 13.1 35.3571 13.1 35.3604C13.1 35.3638 13.1 35.3672 13.1 35.3706C13.1 35.374 13.1 35.3774 13.1 35.3808C13.1 35.3842 13.1 35.3876 13.1 35.391C13.1 35.3944 13.1 35.3978 13.1 35.4012C13.1 35.4046 13.1 35.4081 13.1 35.4115C13.1 35.4149 13.1 35.4183 13.1 35.4217C13.1 35.4251 13.1 35.4285 13.1 35.4319C13.1 35.4353 13.1 35.4388 13.1 35.4422C13.1 35.4456 13.1 35.449 13.1 35.4524C13.1 35.4559 13.1 35.4593 13.1 35.4627C13.1 35.4661 13.1 35.4696 13.1 35.473C13.1 35.4764 13.1 35.4798 13.1 35.4833C13.1 35.4867 13.1 35.4901 13.1 35.4936C13.1 35.497 13.1 35.5004 13.1 35.5039C13.1 35.5073 13.1 35.5107 13.1 35.5142C13.1 35.5176 13.1 35.5211 13.1 35.5245C13.1 35.528 13.1 35.5314 13.1 35.5348C13.1 35.5383 13.1 35.5417 13.1 35.5452C13.1 35.5486 13.1 35.5521 13.1 35.5555C13.1 35.559 13.1 35.5624 13.1 35.5659C13.1 35.5693 13.1 35.5728 13.1 35.5763C13.1 35.5797 13.1 35.5832 13.1 35.5866C13.1 35.5901 13.1 35.5936 13.1 35.597C13.1 35.6005 13.1 35.604 13.1 35.6074C13.1 35.6109 13.1 35.6144 13.1 35.6178C13.1 35.6213 13.1 35.6248 13.1 35.6282C13.1 35.6317 13.1 35.6352 13.1 35.6387C13.1 35.6421 13.1 35.6456 13.1 35.6491C13.1 35.6526 13.1 35.6561 13.1 35.6595C13.1 35.663 13.1 35.6665 13.1 35.67C13.1 35.6735 13.1 35.677 13.1 35.6804C13.1 35.6839 13.1 35.6874 13.1 35.6909C13.1 35.6944 13.1 35.6979 13.1 35.7014C13.1 35.7049 13.1 35.7084 13.1 35.7119C13.1 35.7154 13.1 35.7189 13.1 35.7224C13.1 35.7259 13.1 35.7294 13.1 35.7329C13.1 35.7364 13.1 35.7399 13.1 35.7434C13.1 35.7469 13.1 35.7504 13.1 35.7539C13.1 35.7574 13.1 35.7609 13.1 35.7645C13.1 35.768 13.1 35.7715 13.1 35.775C13.1 35.7785 13.1 35.782 13.1 35.7855C13.1 35.7891 13.1 35.7926 13.1 35.7961C13.1 35.7996 13.1 35.8032 13.1 35.8067C13.1 35.8102 13.1 35.8137 13.1 35.8173C13.1 35.8208 13.1 35.8243 13.1 35.8278C13.1 35.8314 13.1 35.8349 13.1 35.8384C13.1 35.842 13.1 35.8455 13.1 35.849C13.1 35.8526 13.1 35.8561 13.1 35.8597C13.1 35.8632 13.1 35.8667 13.1 35.8703C13.1 35.8738 13.1 35.8774 13.1 35.8809C13.1 35.8845 13.1 35.888 13.1 35.8916C13.1 35.8951 13.1 35.8987 13.1 35.9022C13.1 35.9058 13.1 35.9093 13.1 35.9129C13.1 35.9164 13.1 35.92 13.1 35.9235C13.1 35.9271 13.1 35.9307 13.1 35.9342C13.1 35.9378 13.1 35.9414 13.1 35.9449C13.1 35.9485 13.1 35.952 13.1 35.9556C13.1 35.9592 13.1 35.9628 13.1 35.9663C13.1 35.9699 13.1 35.9735 13.1 35.977C13.1 35.9806 13.1 35.9842 13.1 35.9878C13.1 35.9913 13.1 35.9949 13.1 35.9985C13.1 36.0021 13.1 36.0057 13.1 36.0092C13.1 36.0128 13.1 36.0164 13.1 36.02C13.1 36.0236 13.1 36.0272 13.1 36.0308C13.1 36.0343 13.1 36.0379 13.1 36.0415C13.1 36.0451 13.1 36.0487 13.1 36.0523C13.1 36.0559 13.1 36.0595 13.1 36.0631C13.1 36.0667 13.1 36.0703 13.1 36.0739C13.1 36.0775 13.1 36.0811 13.1 36.0847C13.1 36.0883 13.1 36.0919 13.1 36.0955C13.1 36.0991 13.1 36.1027 13.1 36.1063C13.1 36.11 13.1 36.1136 13.1 36.1172C13.1 36.1208 13.1 36.1244 13.1 36.128C13.1 36.1316 13.1 36.1353 13.1 36.1389C13.1 36.1425 13.1 36.1461 13.1 36.1497C13.1 36.1534 13.1 36.157 13.1 36.1606C13.1 36.1642 13.1 36.1679 13.1 36.1715C13.1 36.1751 13.1 36.1788 13.1 36.1824C13.1 36.186 13.1 36.1897 13.1 36.1933C13.1 36.1969 13.1 36.2006 13.1 36.2042C13.1 36.2078 13.1 36.2115 13.1 36.2151C13.1 36.2188 13.1 36.2224 13.1 36.226C13.1 36.2297 13.1 36.2333 13.1 36.237C13.1 36.2406 13.1 36.2443 13.1 36.2479C13.1 36.2516 13.1 36.2552 13.1 36.2589C13.1 36.2625 13.1 36.2662 13.1 36.2698C13.1 36.2735 13.1 36.2772 13.1 36.2808C13.1 36.2845 13.1 36.2881 13.1 36.2918C13.1 36.2955 13.1 36.2991 13.1 36.3028C13.1 36.3064 13.1 36.3101 13.1 36.3138C13.1 36.3175 13.1 36.3211 13.1 36.3248C13.1 36.3285 13.1 36.3321 13.1 36.3358C13.1 36.3395 13.1 36.3432 13.1 36.3468C13.1 36.3505 13.1 36.3542 13.1 36.3579C13.1 36.3616 13.1 36.3652 13.1 36.3689C13.1 36.3726 13.1 36.3763 13.1 36.38C13.1 36.3837 13.1 36.3874 13.1 36.391C13.1 36.3947 13.1 36.3984 13.1 36.4021C13.1 36.4058 13.1 36.4095 13.1 36.4132C13.1 36.4169 13.1 36.4206 13.1 36.4243C13.1 36.428 13.1 36.4317 13.1 36.4354C13.1 36.4391 13.1 36.4428 13.1 36.4465C13.1 36.4502 13.1 36.4539 13.1 36.4576C13.1 36.4613 13.1 36.465 13.1 36.4687C13.1 36.4725 13.1 36.4762 13.1 36.4799C13.1 36.4836 13.1 36.4873 13.1 36.491C13.1 36.4947 13.1 36.4985 13.1 36.5022C13.1 36.5059 13.1 36.5096 13.1 36.5134C13.1 36.5171 13.1 36.5208 13.1 36.5245C13.1 36.5283 13.1 36.532 13.1 36.5357C13.1 36.5394 13.1 36.5432 13.1 36.5469C13.1 36.5506 13.1 36.5544 13.1 36.5581C13.1 36.5618 13.1 36.5656 13.1 36.5693C13.1 36.5731 13.1 36.5768 13.1 36.5805C13.1 36.5843 13.1 36.588 13.1 36.5918C13.1 36.5955 13.1 36.5993 13.1 36.603C13.1 36.6067 13.1 36.6105 13.1 36.6142C13.1 36.618 13.1 36.6217 13.1 36.6255C13.1 36.6293 13.1 36.633 13.1 36.6368C13.1 36.6405 13.1 36.6443 13.1 36.648C13.1 36.6518 13.1 36.6556 13.1 36.6593C13.1 36.6631 13.1 36.6669 13.1 36.6706C13.1 36.6744 13.1 36.6782 13.1 36.6819C13.1 36.6857 13.1 36.6895 13.1 36.6932C13.1 36.697 13.1 36.7008 13.1 36.7046C13.1 36.7083 13.1 36.7121 13.1 36.7159C13.1 36.7197 13.1 36.7234 13.1 36.7272C13.1 36.731 13.1 36.7348 13.1 36.7386C13.1 36.7424 13.1 36.7461 13.1 36.7499C13.1 36.7537 13.1 36.7575 13.1 36.7613C13.1 36.7651 13.1 36.7689 13.1 36.7727C13.1 36.7765 13.1 36.7803 13.1 36.7841C13.1 36.7878 13.1 36.7916 13.1 36.7954C13.1 36.7992 13.1 36.803 13.1 36.8069C13.1 36.8107 13.1 36.8145 13.1 36.8183C13.1 36.8221 13.1 36.8259 13.1 36.8297C13.1 36.8335 13.1 36.8373 13.1 36.8411C13.1 36.8449 13.1 36.8487 13.1 36.8526C13.1 36.8564 13.1 36.8602 13.1 36.864C13.1 36.8678 13.1 36.8716 13.1 36.8755C13.1 36.8793 13.1 36.8831 13.1 36.8869C13.1 36.8908 13.1 36.8946 13.1 36.8984C13.1 36.9022 13.1 36.9061 13.1 36.9099C13.1 36.9137 13.1 36.9175 13.1 36.9214C13.1 36.9252 13.1 36.9291 13.1 36.9329C13.1 36.9367 13.1 36.9406 13.1 36.9444C13.1 36.9482 13.1 36.9521 13.1 36.9559C13.1 36.9598 13.1 36.9636 13.1 36.9675C13.1 36.9713 13.1 36.9751 13.1 36.979C13.1 36.9828 13.1 36.9867 13.1 36.9905C13.1 36.9944 13.1 36.9982 13.1 37.0021C13.1 37.006 13.1 37.0098 13.1 37.0137C13.1 37.0175 13.1 37.0214 13.1 37.0252C13.1 37.0291 13.1 37.033 13.1 37.0368C13.1 37.0407 13.1 37.0446 13.1 37.0484C13.1 37.0523 13.1 37.0562 13.1 37.06C13.1 37.0639 13.1 37.0678 13.1 37.0716C13.1 37.0755 13.1 37.0794 13.1 37.0833C13.1 37.0871 13.1 37.091 13.1 37.0949C13.1 37.0988 13.1 37.1027 13.1 37.1065C13.1 37.1104 13.1 37.1143 13.1 37.1182C13.1 37.1221 13.1 37.126 13.1 37.1298C13.1 37.1337 13.1 37.1376 13.1 37.1415C13.1 37.1454 13.1 37.1493 13.1 37.1532C13.1 37.1571 13.1 37.161 13.1 37.1649C13.1 37.1688 13.1 37.1727 13.1 37.1766C13.1 37.1805 13.1 37.1844 13.1 37.1883C13.1 37.1922 13.1 37.1961 13.1 37.2H15.1C15.1 37.1961 15.1 37.1922 15.1 37.1883C15.1 37.1844 15.1 37.1805 15.1 37.1766C15.1 37.1727 15.1 37.1688 15.1 37.1649C15.1 37.161 15.1 37.1571 15.1 37.1532C15.1 37.1493 15.1 37.1454 15.1 37.1415C15.1 37.1376 15.1 37.1337 15.1 37.1298C15.1 37.126 15.1 37.1221 15.1 37.1182C15.1 37.1143 15.1 37.1104 15.1 37.1065C15.1 37.1027 15.1 37.0988 15.1 37.0949C15.1 37.091 15.1 37.0871 15.1 37.0833C15.1 37.0794 15.1 37.0755 15.1 37.0716C15.1 37.0678 15.1 37.0639 15.1 37.06C15.1 37.0562 15.1 37.0523 15.1 37.0484C15.1 37.0446 15.1 37.0407 15.1 37.0368C15.1 37.033 15.1 37.0291 15.1 37.0252C15.1 37.0214 15.1 37.0175 15.1 37.0137C15.1 37.0098 15.1 37.006 15.1 37.0021C15.1 36.9982 15.1 36.9944 15.1 36.9905C15.1 36.9867 15.1 36.9828 15.1 36.979C15.1 36.9751 15.1 36.9713 15.1 36.9675C15.1 36.9636 15.1 36.9598 15.1 36.9559C15.1 36.9521 15.1 36.9482 15.1 36.9444C15.1 36.9406 15.1 36.9367 15.1 36.9329C15.1 36.9291 15.1 36.9252 15.1 36.9214C15.1 36.9175 15.1 36.9137 15.1 36.9099C15.1 36.9061 15.1 36.9022 15.1 36.8984C15.1 36.8946 15.1 36.8908 15.1 36.8869C15.1 36.8831 15.1 36.8793 15.1 36.8755C15.1 36.8716 15.1 36.8678 15.1 36.864C15.1 36.8602 15.1 36.8564 15.1 36.8526C15.1 36.8487 15.1 36.8449 15.1 36.8411C15.1 36.8373 15.1 36.8335 15.1 36.8297C15.1 36.8259 15.1 36.8221 15.1 36.8183C15.1 36.8145 15.1 36.8107 15.1 36.8069C15.1 36.803 15.1 36.7992 15.1 36.7954C15.1 36.7916 15.1 36.7878 15.1 36.7841C15.1 36.7803 15.1 36.7765 15.1 36.7727C15.1 36.7689 15.1 36.7651 15.1 36.7613C15.1 36.7575 15.1 36.7537 15.1 36.7499C15.1 36.7461 15.1 36.7424 15.1 36.7386C15.1 36.7348 15.1 36.731 15.1 36.7272C15.1 36.7234 15.1 36.7197 15.1 36.7159C15.1 36.7121 15.1 36.7083 15.1 36.7046C15.1 36.7008 15.1 36.697 15.1 36.6932C15.1 36.6895 15.1 36.6857 15.1 36.6819C15.1 36.6782 15.1 36.6744 15.1 36.6706C15.1 36.6669 15.1 36.6631 15.1 36.6593C15.1 36.6556 15.1 36.6518 15.1 36.648C15.1 36.6443 15.1 36.6405 15.1 36.6368C15.1 36.633 15.1 36.6293 15.1 36.6255C15.1 36.6217 15.1 36.618 15.1 36.6142C15.1 36.6105 15.1 36.6067 15.1 36.603C15.1 36.5993 15.1 36.5955 15.1 36.5918C15.1 36.588 15.1 36.5843 15.1 36.5805C15.1 36.5768 15.1 36.5731 15.1 36.5693C15.1 36.5656 15.1 36.5618 15.1 36.5581C15.1 36.5544 15.1 36.5506 15.1 36.5469C15.1 36.5432 15.1 36.5394 15.1 36.5357C15.1 36.532 15.1 36.5283 15.1 36.5245C15.1 36.5208 15.1 36.5171 15.1 36.5134C15.1 36.5096 15.1 36.5059 15.1 36.5022C15.1 36.4985 15.1 36.4947 15.1 36.491C15.1 36.4873 15.1 36.4836 15.1 36.4799C15.1 36.4762 15.1 36.4725 15.1 36.4687C15.1 36.465 15.1 36.4613 15.1 36.4576C15.1 36.4539 15.1 36.4502 15.1 36.4465C15.1 36.4428 15.1 36.4391 15.1 36.4354C15.1 36.4317 15.1 36.428 15.1 36.4243C15.1 36.4206 15.1 36.4169 15.1 36.4132C15.1 36.4095 15.1 36.4058 15.1 36.4021C15.1 36.3984 15.1 36.3947 15.1 36.391C15.1 36.3874 15.1 36.3837 15.1 36.38C15.1 36.3763 15.1 36.3726 15.1 36.3689C15.1 36.3652 15.1 36.3616 15.1 36.3579C15.1 36.3542 15.1 36.3505 15.1 36.3468C15.1 36.3432 15.1 36.3395 15.1 36.3358C15.1 36.3321 15.1 36.3285 15.1 36.3248C15.1 36.3211 15.1 36.3175 15.1 36.3138C15.1 36.3101 15.1 36.3064 15.1 36.3028C15.1 36.2991 15.1 36.2955 15.1 36.2918C15.1 36.2881 15.1 36.2845 15.1 36.2808C15.1 36.2772 15.1 36.2735 15.1 36.2698C15.1 36.2662 15.1 36.2625 15.1 36.2589C15.1 36.2552 15.1 36.2516 15.1 36.2479C15.1 36.2443 15.1 36.2406 15.1 36.237C15.1 36.2333 15.1 36.2297 15.1 36.226C15.1 36.2224 15.1 36.2188 15.1 36.2151C15.1 36.2115 15.1 36.2078 15.1 36.2042C15.1 36.2006 15.1 36.1969 15.1 36.1933C15.1 36.1897 15.1 36.186 15.1 36.1824C15.1 36.1788 15.1 36.1751 15.1 36.1715C15.1 36.1679 15.1 36.1642 15.1 36.1606C15.1 36.157 15.1 36.1534 15.1 36.1497C15.1 36.1461 15.1 36.1425 15.1 36.1389C15.1 36.1353 15.1 36.1316 15.1 36.128C15.1 36.1244 15.1 36.1208 15.1 36.1172C15.1 36.1136 15.1 36.11 15.1 36.1063C15.1 36.1027 15.1 36.0991 15.1 36.0955C15.1 36.0919 15.1 36.0883 15.1 36.0847C15.1 36.0811 15.1 36.0775 15.1 36.0739C15.1 36.0703 15.1 36.0667 15.1 36.0631C15.1 36.0595 15.1 36.0559 15.1 36.0523C15.1 36.0487 15.1 36.0451 15.1 36.0415C15.1 36.0379 15.1 36.0343 15.1 36.0308C15.1 36.0272 15.1 36.0236 15.1 36.02C15.1 36.0164 15.1 36.0128 15.1 36.0092C15.1 36.0057 15.1 36.0021 15.1 35.9985C15.1 35.9949 15.1 35.9913 15.1 35.9878C15.1 35.9842 15.1 35.9806 15.1 35.977C15.1 35.9735 15.1 35.9699 15.1 35.9663C15.1 35.9628 15.1 35.9592 15.1 35.9556C15.1 35.952 15.1 35.9485 15.1 35.9449C15.1 35.9414 15.1 35.9378 15.1 35.9342C15.1 35.9307 15.1 35.9271 15.1 35.9235C15.1 35.92 15.1 35.9164 15.1 35.9129C15.1 35.9093 15.1 35.9058 15.1 35.9022C15.1 35.8987 15.1 35.8951 15.1 35.8916C15.1 35.888 15.1 35.8845 15.1 35.8809C15.1 35.8774 15.1 35.8738 15.1 35.8703C15.1 35.8667 15.1 35.8632 15.1 35.8597C15.1 35.8561 15.1 35.8526 15.1 35.849C15.1 35.8455 15.1 35.842 15.1 35.8384C15.1 35.8349 15.1 35.8314 15.1 35.8278C15.1 35.8243 15.1 35.8208 15.1 35.8173C15.1 35.8137 15.1 35.8102 15.1 35.8067C15.1 35.8032 15.1 35.7996 15.1 35.7961C15.1 35.7926 15.1 35.7891 15.1 35.7855C15.1 35.782 15.1 35.7785 15.1 35.775C15.1 35.7715 15.1 35.768 15.1 35.7645C15.1 35.7609 15.1 35.7574 15.1 35.7539C15.1 35.7504 15.1 35.7469 15.1 35.7434C15.1 35.7399 15.1 35.7364 15.1 35.7329C15.1 35.7294 15.1 35.7259 15.1 35.7224C15.1 35.7189 15.1 35.7154 15.1 35.7119C15.1 35.7084 15.1 35.7049 15.1 35.7014C15.1 35.6979 15.1 35.6944 15.1 35.6909C15.1 35.6874 15.1 35.6839 15.1 35.6804C15.1 35.677 15.1 35.6735 15.1 35.67C15.1 35.6665 15.1 35.663 15.1 35.6595C15.1 35.6561 15.1 35.6526 15.1 35.6491C15.1 35.6456 15.1 35.6421 15.1 35.6387C15.1 35.6352 15.1 35.6317 15.1 35.6282C15.1 35.6248 15.1 35.6213 15.1 35.6178C15.1 35.6144 15.1 35.6109 15.1 35.6074C15.1 35.604 15.1 35.6005 15.1 35.597C15.1 35.5936 15.1 35.5901 15.1 35.5866C15.1 35.5832 15.1 35.5797 15.1 35.5763C15.1 35.5728 15.1 35.5693 15.1 35.5659C15.1 35.5624 15.1 35.559 15.1 35.5555C15.1 35.5521 15.1 35.5486 15.1 35.5452C15.1 35.5417 15.1 35.5383 15.1 35.5348C15.1 35.5314 15.1 35.528 15.1 35.5245C15.1 35.5211 15.1 35.5176 15.1 35.5142C15.1 35.5107 15.1 35.5073 15.1 35.5039C15.1 35.5004 15.1 35.497 15.1 35.4936C15.1 35.4901 15.1 35.4867 15.1 35.4833C15.1 35.4798 15.1 35.4764 15.1 35.473C15.1 35.4696 15.1 35.4661 15.1 35.4627C15.1 35.4593 15.1 35.4559 15.1 35.4524C15.1 35.449 15.1 35.4456 15.1 35.4422C15.1 35.4388 15.1 35.4353 15.1 35.4319C15.1 35.4285 15.1 35.4251 15.1 35.4217C15.1 35.4183 15.1 35.4149 15.1 35.4115C15.1 35.4081 15.1 35.4046 15.1 35.4012C15.1 35.3978 15.1 35.3944 15.1 35.391C15.1 35.3876 15.1 35.3842 15.1 35.3808C15.1 35.3774 15.1 35.374 15.1 35.3706C15.1 35.3672 15.1 35.3638 15.1 35.3604C15.1 35.3571 15.1 35.3537 15.1 35.3503C15.1 35.3469 15.1 35.3435 15.1 35.3401C15.1 35.3367 15.1 35.3333 15.1 35.3299C15.1 35.3266 15.1 35.3232 15.1 35.3198C15.1 35.3164 15.1 35.313 15.1 35.3097C15.1 35.3063 15.1 35.3029 15.1 35.2995C15.1 35.2962 15.1 35.2928 15.1 35.2894C15.1 35.286 15.1 35.2827 15.1 35.2793C15.1 35.2759 15.1 35.2726 15.1 35.2692C15.1 35.2658 15.1 35.2625 15.1 35.2591C15.1 35.2557 15.1 35.2524 15.1 35.249C15.1 35.2457 15.1 35.2423 15.1 35.2389C15.1 35.2356 15.1 35.2322 15.1 35.2289C15.1 35.2255 15.1 35.2222 15.1 35.2188C15.1 35.2155 15.1 35.2121 15.1 35.2088C15.1 35.2054 15.1 35.2021 15.1 35.1987C15.1 35.1954 15.1 35.192 15.1 35.1887C15.1 35.1854 15.1 35.182 15.1 35.1787C15.1 35.1753 15.1 35.172 15.1 35.1687C15.1 35.1653 15.1 35.162 15.1 35.1587C15.1 35.1553 15.1 35.152 15.1 35.1487C15.1 35.1453 15.1 35.142 15.1 35.1387C15.1 35.1354 15.1 35.132 15.1 35.1287C15.1 35.1254 15.1 35.1221 15.1 35.1187C15.1 35.1154 15.1 35.1121 15.1 35.1088C15.1 35.1055 15.1 35.1022 15.1 35.0988C15.1 35.0955 15.1 35.0922 15.1 35.0889C15.1 35.0856 15.1 35.0823 15.1 35.079C15.1 35.0757 15.1 35.0724 15.1 35.0691C15.1 35.0658 15.1 35.0625 15.1 35.0591C15.1 35.0558 15.1 35.0525 15.1 35.0492C15.1 35.0459 15.1 35.0426 15.1 35.0394C15.1 35.0361 15.1 35.0328 15.1 35.0295C15.1 35.0262 15.1 35.0229 15.1 35.0196C15.1 35.0163 15.1 35.013 15.1 35.0097C15.1 35.0064 15.1 35.0032 15.1 34.9999C15.1 34.9966 15.1 34.9933 15.1 34.99C15.1 34.9867 15.1 34.9835 15.1 34.9802C15.1 34.9769 15.1 34.9736 15.1 34.9704C15.1 34.9671 15.1 34.9638 15.1 34.9605C15.1 34.9573 15.1 34.954 15.1 34.9507C15.1 34.9475 15.1 34.9442 15.1 34.9409C15.1 34.9377 15.1 34.9344 15.1 34.9311C15.1 34.9279 15.1 34.9246 15.1 34.9214C15.1 34.9181 15.1 34.9148 15.1 34.9116C15.1 34.9083 15.1 34.9051 15.1 34.9018C15.1 34.8986 15.1 34.8953 15.1 34.8921C15.1 34.8888 15.1 34.8856 15.1 34.8823C15.1 34.8791 15.1 34.8758 15.1 34.8726C15.1 34.8693 15.1 34.8661 15.1 34.8629C15.1 34.8596 15.1 34.8564 15.1 34.8531C15.1 34.8499 15.1 34.8467 15.1 34.8434C15.1 34.8402 15.1 34.837 15.1 34.8337C15.1 34.8305 15.1 34.8273 15.1 34.824C15.1 34.8208 15.1 34.8176 15.1 34.8144C15.1 34.8111 15.1 34.8079 15.1 34.8047C15.1 34.8015 15.1 34.7982 15.1 34.795C15.1 34.7918 15.1 34.7886 15.1 34.7854C15.1 34.7822 15.1 34.7789 15.1 34.7757C15.1 34.7725 15.1 34.7693 15.1 34.7661C15.1 34.7629 15.1 34.7597 15.1 34.7565C15.1 34.7533 15.1 34.75 15.1 34.7468C15.1 34.7436 15.1 34.7404 15.1 34.7372C15.1 34.734 15.1 34.7308 15.1 34.7276C15.1 34.7244 15.1 34.7212 15.1 34.718C15.1 34.7148 15.1 34.7117 15.1 34.7085C15.1 34.7053 15.1 34.7021 15.1 34.6989C15.1 34.6957 15.1 34.6925 15.1 34.6893C15.1 34.6861 15.1 34.683 15.1 34.6798C15.1 34.6766 15.1 34.6734 15.1 34.6702C15.1 34.667 15.1 34.6639 15.1 34.6607C15.1 34.6575 15.1 34.6543 15.1 34.6512C15.1 34.648 15.1 34.6448 15.1 34.6417C15.1 34.6385 15.1 34.6353 15.1 34.6321C15.1 34.629 15.1 34.6258 15.1 34.6226C15.1 34.6195 15.1 34.6163 15.1 34.6132C15.1 34.61 15.1 34.6068 15.1 34.6037C15.1 34.6005 15.1 34.5974 15.1 34.5942C15.1 34.591 15.1 34.5879 15.1 34.5847C15.1 34.5816 15.1 34.5784 15.1 34.5753C15.1 34.5721 15.1 34.569 15.1 34.5658C15.1 34.5627 15.1 34.5596 15.1 34.5564C15.1 34.5533 15.1 34.5501 15.1 34.547C15.1 34.5438 15.1 34.5407 15.1 34.5376C15.1 34.5344 15.1 34.5313 15.1 34.5282C15.1 34.525 15.1 34.5219 15.1 34.5188C15.1 34.5156 15.1 34.5125 15.1 34.5094C15.1 34.5062 15.1 34.5031 15.1 34.5C15.1 34.4969 15.1 34.4937 15.1 34.4906C15.1 34.4875 15.1 34.4844 15.1 34.4813C15.1 34.4781 15.1 34.475 15.1 34.4719C15.1 34.4688 15.1 34.4657 15.1 34.4626C15.1 34.4595 15.1 34.4563 15.1 34.4532C15.1 34.4501 15.1 34.447 15.1 34.4439C15.1 34.4408 15.1 34.4377 15.1 34.4346C15.1 34.4315 15.1 34.4284 15.1 34.4253C15.1 34.4222 15.1 34.4191 15.1 34.416C15.1 34.4129 15.1 34.4098 15.1 34.4067C15.1 34.4036 15.1 34.4005 15.1 34.3974C15.1 34.3943 15.1 34.3912 15.1 34.3882C15.1 34.3851 15.1 34.382 15.1 34.3789C15.1 34.3758 15.1 34.3727 15.1 34.3696C15.1 34.3666 15.1 34.3635 15.1 34.3604C15.1 34.3573 15.1 34.3542 15.1 34.3512C15.1 34.3481 15.1 34.345 15.1 34.3419C15.1 34.3389 15.1 34.3358 15.1 34.3327C15.1 34.3297 15.1 34.3266 15.1 34.3235C15.1 34.3205 15.1 34.3174 15.1 34.3143C15.1 34.3113 15.1 34.3082 15.1 34.3051C15.1 34.3021 15.1 34.299 15.1 34.296C15.1 34.2929 15.1 34.2898 15.1 34.2868C15.1 34.2837 15.1 34.2807 15.1 34.2776C15.1 34.2746 15.1 34.2715 15.1 34.2685C15.1 34.2654 15.1 34.2624 15.1 34.2593C15.1 34.2563 15.1 34.2533 15.1 34.2502C15.1 34.2472 15.1 34.2441 15.1 34.2411C15.1 34.238 15.1 34.235 15.1 34.232C15.1 34.2289 15.1 34.2259 15.1 34.2229C15.1 34.2198 15.1 34.2168 15.1 34.2138C15.1 34.2107 15.1 34.2077 15.1 34.2047C15.1 34.2017 15.1 34.1986 15.1 34.1956C15.1 34.1926 15.1 34.1896 15.1 34.1865C15.1 34.1835 15.1 34.1805 15.1 34.1775C15.1 34.1745 15.1 34.1714 15.1 34.1684C15.1 34.1654 15.1 34.1624 15.1 34.1594C15.1 34.1564 15.1 34.1534 15.1 34.1504C15.1 34.1474 15.1 34.1443 15.1 34.1413C15.1 34.1383 15.1 34.1353 15.1 34.1323C15.1 34.1293 15.1 34.1263 15.1 34.1233C15.1 34.1203 15.1 34.1173 15.1 34.1143C15.1 34.1113 15.1 34.1083 15.1 34.1053C15.1 34.1023 15.1 34.0993 15.1 34.0964C15.1 34.0934 15.1 34.0904 15.1 34.0874C15.1 34.0844 15.1 34.0814 15.1 34.0784C15.1 34.0755 15.1 34.0725 15.1 34.0695C15.1 34.0665 15.1 34.0635 15.1 34.0605C15.1 34.0576 15.1 34.0546 15.1 34.0516C15.1 34.0486 15.1 34.0457 15.1 34.0427C15.1 34.0397 15.1 34.0367 15.1 34.0338C15.1 34.0308 15.1 34.0278 15.1 34.0249C15.1 34.0219 15.1 34.0189 15.1 34.016C15.1 34.013 15.1 34.0101 15.1 34.0071C15.1 34.0041 15.1 34.0012 15.1 33.9982C15.1 33.9953 15.1 33.9923 15.1 33.9894C15.1 33.9864 15.1 33.9834 15.1 33.9805C15.1 33.9775 15.1 33.9746 15.1 33.9716C15.1 33.9687 15.1 33.9658 15.1 33.9628C15.1 33.9599 15.1 33.9569 15.1 33.954C15.1 33.951 15.1 33.9481 15.1 33.9452C15.1 33.9422 15.1 33.9393 15.1 33.9363C15.1 33.9334 15.1 33.9305 15.1 33.9275C15.1 33.9246 15.1 33.9217 15.1 33.9187C15.1 33.9158 15.1 33.9129 15.1 33.91C15.1 33.907 15.1 33.9041 15.1 33.9012C15.1 33.8983 15.1 33.8953 15.1 33.8924C15.1 33.8895 15.1 33.8866 15.1 33.8837C15.1 33.8807 15.1 33.8778 15.1 33.8749C15.1 33.872 15.1 33.8691 15.1 33.8662C15.1 33.8633 15.1 33.8604 15.1 33.8574C15.1 33.8545 15.1 33.8516 15.1 33.8487C15.1 33.8458 15.1 33.8429 15.1 33.84C15.1 33.8371 15.1 33.8342 15.1 33.8313C15.1 33.8284 15.1 33.8255 15.1 33.8226C15.1 33.8197 15.1 33.8168 15.1 33.8139C15.1 33.811 15.1 33.8082 15.1 33.8053C15.1 33.8024 15.1 33.7995 15.1 33.7966C15.1 33.7937 15.1 33.7908 15.1 33.7879C15.1 33.7851 15.1 33.7822 15.1 33.7793C15.1 33.7764 15.1 33.7735 15.1 33.7707C15.1 33.7678 15.1 33.7649 15.1 33.762C15.1 33.7592 15.1 33.7563 15.1 33.7534C15.1 33.7505 15.1 33.7477 15.1 33.7448C15.1 33.7419 15.1 33.7391 15.1 33.7362C15.1 33.7333 15.1 33.7305 15.1 33.7276C15.1 33.7247 15.1 33.7219 15.1 33.719C15.1 33.7162 15.1 33.7133 15.1 33.7104C15.1 33.7076 15.1 33.7047 15.1 33.7019C15.1 33.699 15.1 33.6962 15.1 33.6933C15.1 33.6905 15.1 33.6876 15.1 33.6848C15.1 33.6819 15.1 33.6791 15.1 33.6762C15.1 33.6734 15.1 33.6706 15.1 33.6677C15.1 33.6649 15.1 33.662 15.1 33.6592C15.1 33.6564 15.1 33.6535 15.1 33.6507C15.1 33.6479 15.1 33.645 15.1 33.6422C15.1 33.6394 15.1 33.6365 15.1 33.6337C15.1 33.6309 15.1 33.628 15.1 33.6252C15.1 33.6224 15.1 33.6196 15.1 33.6167C15.1 33.6139 15.1 33.6111 15.1 33.6083C15.1 33.6055 15.1 33.6026 15.1 33.5998C15.1 33.597 15.1 33.5942 15.1 33.5914C15.1 33.5886 15.1 33.5857 15.1 33.5829C15.1 33.5801 15.1 33.5773 15.1 33.5745C15.1 33.5717 15.1 33.5689 15.1 33.5661C15.1 33.5633 15.1 33.5605 15.1 33.5577C15.1 33.5549 15.1 33.5521 15.1 33.5493C15.1 33.5465 15.1 33.5437 15.1 33.5409C15.1 33.5381 15.1 33.5353 15.1 33.5325C15.1 33.5297 15.1 33.5269 15.1 33.5241C15.1 33.5213 15.1 33.5186 15.1 33.5158C15.1 33.513 15.1 33.5102 15.1 33.5074C15.1 33.5046 15.1 33.5019 15.1 33.4991C15.1 33.4963 15.1 33.4935 15.1 33.4907C15.1 33.488 15.1 33.4852 15.1 33.4824C15.1 33.4796 15.1 33.4769 15.1 33.4741C15.1 33.4713 15.1 33.4686 15.1 33.4658C15.1 33.463 15.1 33.4603 15.1 33.4575C15.1 33.4547 15.1 33.452 15.1 33.4492C15.1 33.4464 15.1 33.4437 15.1 33.4409C15.1 33.4382 15.1 33.4354 15.1 33.4326C15.1 33.4299 15.1 33.4271 15.1 33.4244C15.1 33.4216 15.1 33.4189 15.1 33.4161C15.1 33.4134 15.1 33.4106 15.1 33.4079C15.1 33.4051 15.1 33.4024 15.1 33.3997C15.1 33.3969 15.1 33.3942 15.1 33.3914C15.1 33.3887 15.1 33.3859 15.1 33.3832C15.1 33.3805 15.1 33.3777 15.1 33.375C15.1 33.3723 15.1 33.3695 15.1 33.3668C15.1 33.3641 15.1 33.3613 15.1 33.3586C15.1 33.3559 15.1 33.3532 15.1 33.3504C15.1 33.3477 15.1 33.345 15.1 33.3423C15.1 33.3395 15.1 33.3368 15.1 33.3341C15.1 33.3314 15.1 33.3287 15.1 33.3259C15.1 33.3232 15.1 33.3205 15.1 33.3178C15.1 33.3151 15.1 33.3124 15.1 33.3097C15.1 33.307 15.1 33.3042 15.1 33.3015C15.1 33.2988 15.1 33.2961 15.1 33.2934C15.1 33.2907 15.1 33.288 15.1 33.2853C15.1 33.2826 15.1 33.2799 15.1 33.2772C15.1 33.2745 15.1 33.2718 15.1 33.2691C15.1 33.2664 15.1 33.2637 15.1 33.2611C15.1 33.2584 15.1 33.2557 15.1 33.253C15.1 33.2503 15.1 33.2476 15.1 33.2449C15.1 33.2422 15.1 33.2396 15.1 33.2369C15.1 33.2342 15.1 33.2315 15.1 33.2288C15.1 33.2261 15.1 33.2235 15.1 33.2208C15.1 33.2181 15.1 33.2154 15.1 33.2128C15.1 33.2101 15.1 33.2074 15.1 33.2048C15.1 33.2021 15.1 33.1994 15.1 33.1967C15.1 33.1941 15.1 33.1914 15.1 33.1887C15.1 33.1861 15.1 33.1834 15.1 33.1808C15.1 33.1781 15.1 33.1754 15.1 33.1728C15.1 33.1701 15.1 33.1675 15.1 33.1648C15.1 33.1622 15.1 33.1595 15.1 33.1569C15.1 33.1542 15.1 33.1516 15.1 33.1489C15.1 33.1463 15.1 33.1436 15.1 33.141C15.1 33.1383 15.1 33.1357 15.1 33.133C15.1 33.1304 15.1 33.1277 15.1 33.1251C15.1 33.1225 15.1 33.1198 15.1 33.1172C15.1 33.1145 15.1 33.1119 15.1 33.1093C15.1 33.1066 15.1 33.104 15.1 33.1014C15.1 33.0988 15.1 33.0961 15.1 33.0935C15.1 33.0909 15.1 33.0882 15.1 33.0856C15.1 33.083 15.1 33.0804 15.1 33.0778C15.1 33.0751 15.1 33.0725 15.1 33.0699C15.1 33.0673 15.1 33.0647 15.1 33.062C15.1 33.0594 15.1 33.0568 15.1 33.0542C15.1 33.0516 15.1 33.049 15.1 33.0464C15.1 33.0438 15.1 33.0411 15.1 33.0385C15.1 33.0359 15.1 33.0333 15.1 33.0307C15.1 33.0281 15.1 33.0255 15.1 33.0229C15.1 33.0203 15.1 33.0177 15.1 33.0151C15.1 33.0125 15.1 33.0099 15.1 33.0073C15.1 33.0047 15.1 33.0022 15.1 32.9996C15.1 32.997 15.1 32.9944 15.1 32.9918C15.1 32.9892 15.1 32.9866 15.1 32.984C15.1 32.9815 15.1 32.9789 15.1 32.9763C15.1 32.9737 15.1 32.9711 15.1 32.9685C15.1 32.966 15.1 32.9634 15.1 32.9608C15.1 32.9582 15.1 32.9557 15.1 32.9531C15.1 32.9505 15.1 32.9479 15.1 32.9454C15.1 32.9428 15.1 32.9402 15.1 32.9377C15.1 32.9351 15.1 32.9325 15.1 32.93C15.1 32.9274 15.1 32.9249 15.1 32.9223C15.1 32.9197 15.1 32.9172 15.1 32.9146C15.1 32.9121 15.1 32.9095 15.1 32.9069C15.1 32.9044 15.1 32.9018 15.1 32.8993C15.1 32.8967 15.1 32.8942 15.1 32.8916C15.1 32.8891 15.1 32.8865 15.1 32.884C15.1 32.8815 15.1 32.8789 15.1 32.8764C15.1 32.8738 15.1 32.8713 15.1 32.8687C15.1 32.8662 15.1 32.8637 15.1 32.8611C15.1 32.8586 15.1 32.8561 15.1 32.8535C15.1 32.851 15.1 32.8485 15.1 32.8459C15.1 32.8434 15.1 32.8409 15.1 32.8384C15.1 32.8358 15.1 32.8333 15.1 32.8308C15.1 32.8283 15.1 32.8257 15.1 32.8232C15.1 32.8207 15.1 32.8182 15.1 32.8157C15.1 32.8131 15.1 32.8106 15.1 32.8081C15.1 32.8056 15.1 32.8031 15.1 32.8006C15.1 32.7981 15.1 32.7955 15.1 32.793C15.1 32.7905 15.1 32.788 15.1 32.7855C15.1 32.783 15.1 32.7805 15.1 32.778C15.1 32.7755 15.1 32.773 15.1 32.7705C15.1 32.768 15.1 32.7655 15.1 32.763C15.1 32.7605 15.1 32.758 15.1 32.7555C15.1 32.753 15.1 32.7505 15.1 32.748C15.1 32.7456 15.1 32.7431 15.1 32.7406C15.1 32.7381 15.1 32.7356 15.1 32.7331C15.1 32.7306 15.1 32.7282 15.1 32.7257C15.1 32.7232 15.1 32.7207 15.1 32.7182C15.1 32.7158 15.1 32.7133 15.1 32.7108C15.1 32.7083 15.1 32.7059 15.1 32.7034C15.1 32.7009 15.1 32.6984 15.1 32.696C15.1 32.6935 15.1 32.691 15.1 32.6886C15.1 32.6861 15.1 32.6836 15.1 32.6812C15.1 32.6787 15.1 32.6763 15.1 32.6738C15.1 32.6713 15.1 32.6689 15.1 32.6664C15.1 32.664 15.1 32.6615 15.1 32.6591C15.1 32.6566 15.1 32.6542 15.1 32.6517C15.1 32.6493 15.1 32.6468 15.1 32.6444C15.1 32.6419 15.1 32.6395 15.1 32.637C15.1 32.6346 15.1 32.6321 15.1 32.6297C15.1 32.6272 15.1 32.6248 15.1 32.6224C15.1 32.6199 15.1 32.6175 15.1 32.6151C15.1 32.6126 15.1 32.6102 15.1 32.6078C15.1 32.6053 15.1 32.6029 15.1 32.6005C15.1 32.598 15.1 32.5956 15.1 32.5932C15.1 32.5908 15.1 32.5883 15.1 32.5859C15.1 32.5835 15.1 32.5811 15.1 32.5786C15.1 32.5762 15.1 32.5738 15.1 32.5714C15.1 32.569 15.1 32.5666 15.1 32.5641C15.1 32.5617 15.1 32.5593 15.1 32.5569C15.1 32.5545 15.1 32.5521 15.1 32.5497C15.1 32.5473 15.1 32.5449 15.1 32.5425C15.1 32.5401 15.1 32.5376 15.1 32.5352C15.1 32.5328 15.1 32.5304 15.1 32.528C15.1 32.5256 15.1 32.5233 15.1 32.5209C15.1 32.5185 15.1 32.5161 15.1 32.5137C15.1 32.5113 15.1 32.5089 15.1 32.5065C15.1 32.5041 15.1 32.5017 15.1 32.4993C15.1 32.4969 15.1 32.4946 15.1 32.4922C15.1 32.4898 15.1 32.4874 15.1 32.485C15.1 32.4827 15.1 32.4803 15.1 32.4779C15.1 32.4755 15.1 32.4731 15.1 32.4708C15.1 32.4684 15.1 32.466 15.1 32.4636C15.1 32.4613 15.1 32.4589 15.1 32.4565C15.1 32.4542 15.1 32.4518 15.1 32.4494C15.1 32.4471 15.1 32.4447 15.1 32.4424C15.1 32.44 15.1 32.4376 15.1 32.4353C15.1 32.4329 15.1 32.4306 15.1 32.4282C15.1 32.4258 15.1 32.4235 15.1 32.4211C15.1 32.4188 15.1 32.4164 15.1 32.4141C15.1 32.4117 15.1 32.4094 15.1 32.407C15.1 32.4047 15.1 32.4023 15.1 32.4H13.1ZM13.1 37.2C13.1 45.0847 14.0845 51.1476 16.1563 55.2737C17.1994 57.351 18.5337 58.9685 20.1844 60.0644C21.8413 61.1643 23.7592 61.7 25.9 61.7V59.7C24.1075 59.7 22.5837 59.2566 21.2906 58.3981C19.9913 57.5356 18.8673 56.2156 17.9437 54.3763C16.0822 50.6691 15.1 44.9819 15.1 37.2H13.1ZM25.9 61.7C28.0172 61.7 29.9125 61.1444 31.5459 60.0085C33.171 58.8784 34.4799 57.2141 35.5018 55.0822C37.5327 50.8453 38.5 44.6147 38.5 36.5H36.5C36.5 44.5187 35.534 50.388 33.6982 54.2178C32.7868 56.1192 31.679 57.4799 30.4041 58.3665C29.1375 59.2472 27.6495 59.7 25.9 59.7V61.7ZM38.5 36.5C38.5 28.1319 37.5691 21.843 35.6006 17.7653L33.7994 18.6348C35.5642 22.2903 36.5 28.2014 36.5 36.5H38.5ZM35.6034 17.7713C34.6095 15.6769 33.293 14.0456 31.6275 12.9415C29.9579 11.8347 28.001 11.3 25.8 11.3V13.3C27.6656 13.3 29.2254 13.7487 30.5225 14.6085C31.8236 15.4711 32.9238 16.7898 33.7966 18.6287L35.6034 17.7713ZM106.366 58.7H107.366V57.7H106.366V58.7ZM106.366 71V72H107.366V71H106.366ZM55.0664 71L54.0666 70.9787L54.0449 72H55.0664V71ZM56.2664 62.4L55.3086 62.1126L55.3062 62.1206L55.304 62.1285L56.2664 62.4ZM58.9664 55.7L58.1061 55.1902L58.099 55.2022L58.0923 55.2144L58.9664 55.7ZM63.7664 50L64.4503 50.7295L63.7664 50ZM69.3664 45.2L68.7821 44.3885L68.7742 44.3942L68.7664 44.4L69.3664 45.2ZM76.5664 40.2L76.0117 39.3679L76.0036 39.3734L76.5664 40.2ZM79.7664 38.1L79.2192 37.263L79.7664 38.1ZM83.3664 35.7L82.7929 34.8808L83.3664 35.7ZM86.3664 33.3L87.0141 34.0619L87.0248 34.0528L87.0354 34.0433L86.3664 33.3ZM89.1664 30.2L88.3442 29.6308L88.3289 29.6529L88.3148 29.6759L89.1664 30.2ZM90.8664 27L91.788 27.3881L91.7915 27.3798L91.7949 27.3714L90.8664 27ZM88.8664 15.6L88.1466 16.2941L88.1592 16.3072L88.1723 16.3198L88.8664 15.6ZM70.2664 28V29H71.2277L71.2656 28.0394L70.2664 28ZM56.6664 28H55.6664V29H56.6664V28ZM63.5664 7.6L64.2786 8.30202L64.2835 8.29693L63.5664 7.6ZM99.3664 6.5L98.6937 7.23996L98.6999 7.24553L99.3664 6.5ZM102.466 34.2L101.671 33.5945L102.466 34.2ZM91.4664 43.9L90.904 43.073L90.8929 43.0808L91.4664 43.9ZM87.7664 46.4L88.2992 47.2462L88.3103 47.2393L88.3211 47.232L87.7664 46.4ZM83.4664 49.2L82.8999 48.376L82.8873 48.3846L82.875 48.3936L83.4664 49.2ZM79.7664 52L80.3779 52.7913L79.7664 52ZM75.9664 55.4L76.6735 56.1071L76.6842 56.0964L76.6946 56.0854L75.9664 55.4ZM73.2664 58.7L72.4268 58.1567L71.4283 59.7H73.2664V58.7ZM105.366 58.7V71H107.366V58.7H105.366ZM106.366 70H55.0664V72H106.366V70ZM56.0662 71.0213C56.1313 67.9594 56.5218 65.1782 57.2289 62.6715L55.304 62.1285C54.5443 64.8218 54.1348 67.7739 54.0666 70.9787L56.0662 71.0213ZM57.2242 62.6873C58.0103 60.0672 58.8853 57.9052 59.8406 56.1856L58.0923 55.2144C57.0475 57.0948 56.1225 59.3994 55.3086 62.1126L57.2242 62.6873ZM59.8267 56.2098C60.8304 54.5161 62.3608 52.6885 64.4503 50.7295L63.0825 49.2705C60.9054 51.3115 59.2358 53.2839 58.1061 55.1902L59.8267 56.2098ZM64.4503 50.7295C66.568 48.7443 68.4056 47.1706 69.9664 46L68.7664 44.4C67.1272 45.6294 65.2315 47.2557 63.0825 49.2705L64.4503 50.7295ZM69.9507 46.0115C71.6067 44.8192 73.9982 43.1584 77.1292 41.0266L76.0036 39.3734C72.868 41.5083 70.4595 43.1808 68.7821 44.3885L69.9507 46.0115ZM77.1211 41.0321C77.5165 40.7685 78.5787 40.0713 80.3137 38.937L79.2192 37.263C77.4874 38.3953 76.4163 39.0982 76.0117 39.3679L77.1211 41.0321ZM80.3137 38.937C82.0464 37.804 83.2587 36.9961 83.9399 36.5192L82.7929 34.8808C82.1408 35.3373 80.953 36.1293 79.2192 37.263L80.3137 38.937ZM83.9399 36.5192C84.6475 36.0239 85.6775 35.198 87.0141 34.0619L85.7188 32.5381C84.3886 33.6687 83.4187 34.4427 82.7929 34.8808L83.9399 36.5192ZM87.0354 34.0433C88.3945 32.8201 89.4104 31.7115 90.0181 30.7241L88.3148 29.6759C87.8557 30.4218 87.005 31.3799 85.6974 32.5567L87.0354 34.0433ZM89.9886 30.7692C90.6377 29.8316 91.2355 28.7003 91.788 27.3881L89.9448 26.6119C89.4306 27.833 88.8951 28.835 88.3442 29.6308L89.9886 30.7692ZM91.7949 27.3714C92.3742 25.923 92.6664 24.4305 92.6664 22.9H90.6664C90.6664 24.1695 90.4253 25.4103 89.9379 26.6286L91.7949 27.3714ZM92.6664 22.9C92.6664 19.6154 91.6582 16.9029 89.5605 14.8802L88.1723 16.3198C89.808 17.8971 90.6664 20.0512 90.6664 22.9H92.6664ZM89.5863 14.9059C87.5678 12.8127 84.8915 11.8 81.6664 11.8V13.8C84.4413 13.8 86.565 14.654 88.1466 16.2941L89.5863 14.9059ZM81.6664 11.8C77.8009 11.8 74.733 13.1779 72.6164 16C70.5414 18.7666 69.4708 22.803 69.2672 27.9606L71.2656 28.0394C71.462 23.0637 72.4914 19.5 74.2164 17.2C75.8998 14.9554 78.3319 13.8 81.6664 13.8V11.8ZM70.2664 27H56.6664V29H70.2664V27ZM57.6664 28V26.5H55.6664V28H57.6664ZM57.6664 26.5C57.6664 18.7704 59.9006 12.7434 64.2786 8.302L62.8542 6.898C58.0322 11.7899 55.6664 18.3629 55.6664 26.5H57.6664ZM64.2835 8.29693C68.6612 3.79235 74.5835 1.5 82.1664 1.5V-0.500004C74.1493 -0.500004 67.6716 1.94098 62.8493 6.90307L64.2835 8.29693ZM82.1664 1.5C89.0339 1.5 94.5115 3.43788 98.6937 7.23994L100.039 5.76006C95.4213 1.56211 89.4322 -0.500004 82.1664 -0.500004V1.5ZM98.6999 7.24553C102.871 10.9741 104.966 15.8279 104.966 21.9H106.966C106.966 15.3055 104.662 9.8926 100.033 5.75446L98.6999 7.24553ZM104.966 21.9C104.966 26.8869 103.834 30.7518 101.671 33.5945L103.262 34.8055C105.766 31.5149 106.966 27.1798 106.966 21.9H104.966ZM101.671 33.5945C99.4289 36.5407 95.8596 39.7033 90.9041 43.0731L92.0287 44.7269C97.0732 41.2967 100.837 37.9926 103.262 34.8055L101.671 33.5945ZM90.8929 43.0808C90.2368 43.54 89.0124 44.3675 87.2117 45.5679L88.3211 47.232C90.1204 46.0325 91.3626 45.1933 92.0399 44.7192L90.8929 43.0808ZM87.2336 45.5538C85.4284 46.6904 83.9824 47.6317 82.8999 48.376L84.0329 50.024C85.0838 49.3016 86.5044 48.3763 88.2992 47.2462L87.2336 45.5538ZM82.875 48.3936C81.8659 49.1337 80.6254 50.0725 79.155 51.2087L80.3779 52.7913C81.8408 51.6608 83.0669 50.733 84.0578 50.0064L82.875 48.3936ZM79.155 51.2087C77.6543 52.3683 76.347 53.5366 75.2382 54.7146L76.6946 56.0854C77.7192 54.9968 78.9452 53.8983 80.3779 52.7913L79.155 51.2087ZM75.2593 54.6929C74.1486 55.8036 73.2026 56.9579 72.4268 58.1567L74.106 59.2433C74.7969 58.1755 75.6509 57.1297 76.6735 56.1071L75.2593 54.6929ZM73.2664 59.7H106.366V57.7H73.2664V59.7Z" fill="#5F37D0"/>
</svg>
