<svg width="80" height="80" viewBox="0 0 80 80" fill="none" xmlns="http://www.w3.org/2000/svg">
<rect width="80" height="80" fill="#7044CC"/>
<path d="M48.9062 31.4062H33.0938C32.7135 31.4062 32.4062 31.7135 32.4062 32.0938V47.9062C32.4062 48.2865 32.7135 48.5938 33.0938 48.5938H48.9062C49.2865 48.5938 49.5938 48.2865 49.5938 47.9062V32.0938C49.5938 31.7135 49.2865 31.4062 48.9062 31.4062ZM46.9211 36.4229H45.5482C44.4719 36.4229 44.2635 36.9342 44.2635 37.6861V39.3426H46.833L46.4979 41.9357H44.2635V48.5938H41.5844V41.9379H39.3436V39.3426H41.5844V37.4305C41.5844 35.2111 42.94 34.0016 44.9209 34.0016C45.8705 34.0016 46.6848 34.0725 46.9232 34.1047V36.4229H46.9211Z" fill="white"/>
</svg>
