<svg width="25" height="24" viewBox="0 0 25 24" fill="none" xmlns="http://www.w3.org/2000/svg">
<path fill-rule="evenodd" clip-rule="evenodd" d="M9.93516 0.49762C6.37114 0.49762 3.50924 3.25119 3.50924 6.68125C3.50924 10.1105 6.37152 12.8649 9.93516 12.8649C13.4996 12.8649 16.3611 10.1109 16.3611 6.68125C16.3611 3.25082 13.5 0.49762 9.93516 0.49762ZM9.93516 2.24178C12.499 2.24178 14.5486 4.21409 14.5486 6.68125C14.5486 9.14768 12.4985 11.1207 9.93516 11.1207C7.37254 11.1207 5.32174 9.14725 5.32174 6.68125C5.32174 4.21453 7.37209 2.24178 9.93516 2.24178ZM9.93516 14.9815C3.85723 14.9815 0.417114 16.0913 0.417114 19.2361C0.417114 22.3843 3.87249 23.5151 9.93516 23.5151L10.7127 23.5087C16.3043 23.4147 19.4532 22.2677 19.4532 19.2605C19.4532 16.1807 16.1464 15.0316 10.3268 14.9831L9.93516 14.9815ZM9.93516 16.7256C15.0119 16.7256 17.6407 17.5859 17.6407 19.2605C17.6407 20.9247 15.0184 21.7709 9.93516 21.7709C4.85838 21.7709 2.22961 20.9107 2.22961 19.2361C2.22961 17.6162 4.71076 16.7719 9.52829 16.7275L9.93516 16.7256ZM21.2049 7.38031C21.6637 7.38031 22.0429 7.70839 22.1029 8.13406L22.1112 8.25239V9.71156H23.677C24.1776 9.71156 24.5833 10.102 24.5833 10.5836C24.5833 11.0251 24.2424 11.39 23.8 11.4478L23.677 11.4557H22.1112V12.9151C22.1112 13.3968 21.7054 13.7872 21.2049 13.7872C20.7461 13.7872 20.3669 13.4591 20.3069 13.0335L20.2987 12.9151V11.4557H18.735C18.2345 11.4557 17.8287 11.0653 17.8287 10.5836C17.8287 10.1421 18.1697 9.77727 18.612 9.71952L18.735 9.71156H20.2987V8.25239C20.2987 7.77076 20.7044 7.38031 21.2049 7.38031Z" fill="white"/>
</svg>
