<svg width="134" height="25" viewBox="0 0 134 25" fill="none" xmlns="http://www.w3.org/2000/svg">
<path d="M14.95 1.2V4.525H9.6V19H5.675V4.525H0.325V1.2H14.95ZM30.3582 1.2V4.4H20.8832V8.275H29.5832V11.35H20.8832V15.725H30.5332V19H17.0082V1.2H30.3582ZM45.8191 15.65V19H33.2191V1.2H37.1191V15.65H45.8191ZM61.3885 1.2V4.4H51.9135V8.275H60.6135V11.35H51.9135V15.725H61.5635V19H48.0385V1.2H61.3885ZM80.0994 9.375V19H77.6244L77.2494 16.975C75.9161 18.6083 74.1327 19.425 71.8994 19.425C69.4161 19.425 67.3994 18.5667 65.8494 16.85C64.2994 15.1333 63.5244 12.9083 63.5244 10.175C63.5244 7.425 64.3411 5.18333 65.9744 3.45C67.6077 1.7 69.7077 0.824999 72.2744 0.824999C74.3077 0.824999 76.0244 1.4 77.4244 2.55C78.8244 3.68333 79.6411 5.18333 79.8744 7.05H76.0994C75.9161 6.11667 75.4827 5.39167 74.7994 4.875C74.1161 4.35833 73.2577 4.1 72.2244 4.1C70.7411 4.1 69.5744 4.64167 68.7244 5.725C67.8744 6.79167 67.4494 8.275 67.4494 10.175C67.4494 12.1083 67.8744 13.6167 68.7244 14.7C69.5911 15.7667 70.7994 16.3 72.3494 16.3C73.5661 16.3 74.5661 15.9333 75.3494 15.2C76.1327 14.45 76.5494 13.475 76.5994 12.275H72.6244V9.375H80.0994Z" fill="#BBBBBB"/>
<path d="M95.9 1.2L99.125 19H97.375L96.45 13.4H88.4L85.075 19H83.15L94.025 1.2H95.9ZM94.675 2.675C94.3583 3.375 93.6167 4.7 92.45 6.65L89.2 12.025H96.225L95.2 6.125C94.9333 4.55833 94.7583 3.40833 94.675 2.675ZM104.547 1.2H109.122C110.472 1.2 111.505 1.26667 112.222 1.4C112.939 1.51667 113.58 1.74167 114.147 2.075C116.147 3.225 117.147 5.31667 117.147 8.35C117.147 10.7333 116.48 12.925 115.147 14.925C113.83 16.925 112.064 18.1833 109.847 18.7C108.997 18.9 107.722 19 106.022 19H100.797L104.547 1.2ZM105.922 2.65L102.797 17.55H107.497C109.164 17.55 110.614 17.1083 111.847 16.225C113.08 15.3417 113.997 14.2083 114.597 12.825C115.197 11.4417 115.497 9.91667 115.497 8.25C115.497 6.2 115.005 4.75833 114.022 3.925C113.039 3.075 111.555 2.65 109.572 2.65H105.922ZM132.936 6.375H131.336V6.075C131.336 3.55833 129.795 2.3 126.711 2.3C125.278 2.3 124.136 2.60833 123.286 3.225C122.453 3.84167 122.036 4.675 122.036 5.725C122.036 5.975 122.061 6.20833 122.111 6.425C122.178 6.64167 122.253 6.83333 122.336 7C122.42 7.16667 122.545 7.33333 122.711 7.5C122.895 7.65 123.045 7.78333 123.161 7.9C123.278 8 123.461 8.11667 123.711 8.25C123.961 8.36667 124.153 8.45833 124.286 8.525C124.42 8.59167 124.636 8.675 124.936 8.775C125.236 8.85833 125.445 8.91667 125.561 8.95C125.678 8.98333 125.895 9.05 126.211 9.15C126.528 9.23333 126.72 9.28333 126.786 9.3C127.536 9.51667 128.153 9.725 128.636 9.925C129.12 10.1083 129.62 10.375 130.136 10.725C130.67 11.075 131.061 11.525 131.311 12.075C131.578 12.6083 131.711 13.2417 131.711 13.975C131.711 15.5917 131.086 16.8917 129.836 17.875C128.586 18.8583 126.936 19.35 124.886 19.35C122.77 19.35 121.128 18.8583 119.961 17.875C118.795 16.875 118.211 15.4667 118.211 13.65C118.211 13.4667 118.22 13.2917 118.236 13.125H119.861V13.525C119.861 16.475 121.553 17.95 124.936 17.95C126.47 17.95 127.703 17.6 128.636 16.9C129.586 16.1833 130.061 15.2417 130.061 14.075C130.061 13.5417 129.961 13.0917 129.761 12.725C129.578 12.3417 129.261 12.025 128.811 11.775C128.378 11.525 128.011 11.35 127.711 11.25C127.428 11.15 126.978 11.0083 126.361 10.825C124.561 10.3083 123.361 9.89167 122.761 9.575C121.211 8.74167 120.436 7.49167 120.436 5.825C120.436 4.325 121.003 3.13333 122.136 2.25C123.286 1.35 124.82 0.899999 126.736 0.899999C128.586 0.899999 130.086 1.30833 131.236 2.125C132.386 2.925 132.961 4.2 132.961 5.95C132.961 6.08333 132.953 6.225 132.936 6.375Z" fill="#BBBBBB"/>
</svg>
